M48
;Layer_Color=9474304
;FILE_FORMAT=4:4
METRIC,LZ
;TYPE=PLATED
T01F00S00C0.2000
T02F00S00C0.3000
T04F00S00C1.3000
T05F00S00C2.5000
;TYPE=NON_PLATED
T06F00S00C0.6500
%
T01
X0003925Y-0013825
X0001425Y-0008825
X0018925Y-0013825
X0023925
X0021425Y-0018825
X0023925Y-0023825
X0021425Y-0028825
X0023925Y-0003825
X0018925
X0016425Y0001175
X0011425
X0006425
X0003925Y-0003825
T02
X-0001347Y-0017603
X0Y-0018161
X0001347Y-0017603
X0001905Y-0016256
X0001347Y-0014909
X0Y-0014351
X-0001347Y-0014909
X-0001905Y-0016256
X-0001397Y-0012573
X000635Y-00117642
X0008255
Y-00099862
X0006604
X0007366Y-00108752
X00043899Y-0009017
X0009652Y-0008255
X00105399Y-00084826
X0010668Y-00092755
X00089356Y-00148353
X001397Y-0012954
X0017018
X0020828
X002286Y-0017653
X00208205Y-00250115
X002286Y-0029591
Y-0005715
X00114565Y-00094287
X0046278Y-0032943
X0047625Y-0032385
X0048972Y-0032943
X004953Y-003429
X0048972Y-0035637
X0047625Y-0036195
X0046278Y-0035637
X004572Y-003429
X0046278Y0018973
X004572Y002032
X0046278Y0021667
X0047625Y0022225
X0048972Y0021667
X004953Y002032
X0048972Y0018973
X0047625Y0018415
X00208205Y00108025
X002286Y0006223
X00208205Y-00011355
X0017653Y0001016
X0016764Y-0003429
X001143Y-0002032
X000762
X0001347Y-0001347
X0001905Y0
X0001347Y0001347
X0Y0001905
X-0001347Y0001347
X-0001905Y0
X-0001347Y-0001347
X0Y-0001905
T04
X00369Y-0026634
Y-0021634
Y-0016634
Y-0011634
Y-0006634
X00451
Y-0011634
Y-0016634
Y-0021634
Y-0026634
Y-0001634
Y0003366
Y0008366
Y0013366
X00369
Y0008366
Y0003366
Y-0001634
T05
X0Y-0016256
X0047625Y-003429
Y002032
X0Y0
T06
X0012415Y-0002134
X0006635
M30
