G04*
G04 #@! TF.GenerationSoftware,Altium Limited,Altium Designer,26.3.0 (6)*
G04*
G04 Layer_Color=8388736*
%FSLAX44Y44*%
%MOMM*%
G71*
G04*
G04 #@! TF.SameCoordinates,E7A8B358-94F2-4CCB-B9E2-53747866BEA0*
G04*
G04*
G04 #@! TF.FilePolarity,Negative*
G04*
G01*
G75*
G04:AMPARAMS|DCode=21|XSize=0.2393mm|YSize=0.9354mm|CornerRadius=0.1196mm|HoleSize=0mm|Usage=FLASHONLY|Rotation=45.000|XOffset=0mm|YOffset=0mm|HoleType=Round|Shape=RoundedRectangle|*
%AMROUNDEDRECTD21*
21,1,0.2393,0.6961,0,0,45.0*
21,1,0.0000,0.9354,0,0,45.0*
1,1,0.2393,0.2461,-0.2461*
1,1,0.2393,0.2461,-0.2461*
1,1,0.2393,-0.2461,0.2461*
1,1,0.2393,-0.2461,0.2461*
%
%ADD21ROUNDEDRECTD21*%
G04:AMPARAMS|DCode=31|XSize=0.9654mm|YSize=0.2393mm|CornerRadius=0.1196mm|HoleSize=0mm|Usage=FLASHONLY|Rotation=90.000|XOffset=0mm|YOffset=0mm|HoleType=Round|Shape=RoundedRectangle|*
%AMROUNDEDRECTD31*
21,1,0.9654,0.0000,0,0,90.0*
21,1,0.7261,0.2393,0,0,90.0*
1,1,0.2393,0.0000,0.3630*
1,1,0.2393,0.0000,-0.3630*
1,1,0.2393,0.0000,-0.3630*
1,1,0.2393,0.0000,0.3630*
%
%ADD31ROUNDEDRECTD31*%
%ADD32R,0.6000X1.1500*%
G04:AMPARAMS|DCode=33|XSize=0.9354mm|YSize=0.2393mm|CornerRadius=0.1196mm|HoleSize=0mm|Usage=FLASHONLY|Rotation=45.000|XOffset=0mm|YOffset=0mm|HoleType=Round|Shape=RoundedRectangle|*
%AMROUNDEDRECTD33*
21,1,0.9354,0.0000,0,0,45.0*
21,1,0.6961,0.2393,0,0,45.0*
1,1,0.2393,0.2461,0.2461*
1,1,0.2393,-0.2461,-0.2461*
1,1,0.2393,-0.2461,-0.2461*
1,1,0.2393,0.2461,0.2461*
%
%ADD33ROUNDEDRECTD33*%
%ADD34R,0.3000X1.1500*%
%ADD35R,0.2393X0.9654*%
G04:AMPARAMS|DCode=36|XSize=0.9354mm|YSize=0.2393mm|CornerRadius=0mm|HoleSize=0mm|Usage=FLASHONLY|Rotation=45.000|XOffset=0mm|YOffset=0mm|HoleType=Round|Shape=Rectangle|*
%AMROTATEDRECTD36*
4,1,4,-0.2461,-0.4153,-0.4153,-0.2461,0.2461,0.4153,0.4153,0.2461,-0.2461,-0.4153,0.0*
%
%ADD36ROTATEDRECTD36*%

%ADD37R,2.8640X1.0040*%
G04:AMPARAMS|DCode=38|XSize=1.234mm|YSize=0.664mm|CornerRadius=0.1595mm|HoleSize=0mm|Usage=FLASHONLY|Rotation=90.000|XOffset=0mm|YOffset=0mm|HoleType=Round|Shape=RoundedRectangle|*
%AMROUNDEDRECTD38*
21,1,1.2340,0.3450,0,0,90.0*
21,1,0.9150,0.6640,0,0,90.0*
1,1,0.3190,0.1725,0.4575*
1,1,0.3190,0.1725,-0.4575*
1,1,0.3190,-0.1725,-0.4575*
1,1,0.3190,-0.1725,0.4575*
%
%ADD38ROUNDEDRECTD38*%
G04:AMPARAMS|DCode=39|XSize=1.43mm|YSize=0.63mm|CornerRadius=0.135mm|HoleSize=0mm|Usage=FLASHONLY|Rotation=90.000|XOffset=0mm|YOffset=0mm|HoleType=Round|Shape=RoundedRectangle|*
%AMROUNDEDRECTD39*
21,1,1.4300,0.3600,0,0,90.0*
21,1,1.1600,0.6300,0,0,90.0*
1,1,0.2700,0.1800,0.5800*
1,1,0.2700,0.1800,-0.5800*
1,1,0.2700,-0.1800,-0.5800*
1,1,0.2700,-0.1800,0.5800*
%
%ADD39ROUNDEDRECTD39*%
%ADD40R,0.9500X0.9500*%
%ADD41P,5.2326X4X90.0*%
%ADD42R,0.9000X1.1500*%
G04:AMPARAMS|DCode=43|XSize=1.39mm|YSize=0.7mm|CornerRadius=0.1438mm|HoleSize=0mm|Usage=FLASHONLY|Rotation=90.000|XOffset=0mm|YOffset=0mm|HoleType=Round|Shape=RoundedRectangle|*
%AMROUNDEDRECTD43*
21,1,1.3900,0.4125,0,0,90.0*
21,1,1.1025,0.7000,0,0,90.0*
1,1,0.2875,0.2063,0.5513*
1,1,0.2875,0.2063,-0.5513*
1,1,0.2875,-0.2063,-0.5513*
1,1,0.2875,-0.2063,0.5513*
%
%ADD43ROUNDEDRECTD43*%
%ADD44R,0.7000X0.7000*%
%ADD45R,0.7700X0.8100*%
%ADD46R,0.6500X0.7500*%
G04:AMPARAMS|DCode=47|XSize=0.77mm|YSize=0.81mm|CornerRadius=0mm|HoleSize=0mm|Usage=FLASHONLY|Rotation=225.000|XOffset=0mm|YOffset=0mm|HoleType=Round|Shape=Rectangle|*
%AMROTATEDRECTD47*
4,1,4,-0.0141,0.5586,0.5586,-0.0141,0.0141,-0.5586,-0.5586,0.0141,-0.0141,0.5586,0.0*
%
%ADD47ROTATEDRECTD47*%

G04:AMPARAMS|DCode=48|XSize=0.77mm|YSize=0.81mm|CornerRadius=0mm|HoleSize=0mm|Usage=FLASHONLY|Rotation=315.000|XOffset=0mm|YOffset=0mm|HoleType=Round|Shape=Rectangle|*
%AMROTATEDRECTD48*
4,1,4,-0.5586,-0.0141,0.0141,0.5586,0.5586,0.0141,-0.0141,-0.5586,-0.5586,-0.0141,0.0*
%
%ADD48ROTATEDRECTD48*%

%ADD49R,0.7000X0.7000*%
G04:AMPARAMS|DCode=50|XSize=0.7mm|YSize=0.65mm|CornerRadius=0.1375mm|HoleSize=0mm|Usage=FLASHONLY|Rotation=180.000|XOffset=0mm|YOffset=0mm|HoleType=Round|Shape=RoundedRectangle|*
%AMROUNDEDRECTD50*
21,1,0.7000,0.3750,0,0,180.0*
21,1,0.4250,0.6500,0,0,180.0*
1,1,0.2750,-0.2125,0.1875*
1,1,0.2750,0.2125,0.1875*
1,1,0.2750,0.2125,-0.1875*
1,1,0.2750,-0.2125,-0.1875*
%
%ADD50ROUNDEDRECTD50*%
%ADD51C,5.1500*%
%ADD52C,2.1000*%
G04:AMPARAMS|DCode=53|XSize=1mm|YSize=1.8mm|CornerRadius=0.5mm|HoleSize=0mm|Usage=FLASHONLY|Rotation=180.000|XOffset=0mm|YOffset=0mm|HoleType=Round|Shape=RoundedRectangle|*
%AMROUNDEDRECTD53*
21,1,1.0000,0.8000,0,0,180.0*
21,1,0.0000,1.8000,0,0,180.0*
1,1,1.0000,0.0000,0.4000*
1,1,1.0000,0.0000,0.4000*
1,1,1.0000,0.0000,-0.4000*
1,1,1.0000,0.0000,-0.4000*
%
%ADD53ROUNDEDRECTD53*%
G04:AMPARAMS|DCode=54|XSize=1mm|YSize=2.1mm|CornerRadius=0.5mm|HoleSize=0mm|Usage=FLASHONLY|Rotation=180.000|XOffset=0mm|YOffset=0mm|HoleType=Round|Shape=RoundedRectangle|*
%AMROUNDEDRECTD54*
21,1,1.0000,1.1000,0,0,180.0*
21,1,0.0000,2.1000,0,0,180.0*
1,1,1.0000,0.0000,0.5500*
1,1,1.0000,0.0000,0.5500*
1,1,1.0000,0.0000,-0.5500*
1,1,1.0000,0.0000,-0.5500*
%
%ADD54ROUNDEDRECTD54*%
%ADD55C,0.6500*%
%ADD56C,0.7500*%
D21*
X57979Y-90003D02*
D03*
X82270Y-135508D02*
D03*
X78735Y-139044D02*
D03*
X85806Y-131972D02*
D03*
X89341Y-128437D02*
D03*
X92877Y-124901D02*
D03*
X96412Y-121366D02*
D03*
X99948Y-117830D02*
D03*
X103483Y-114295D02*
D03*
X68585Y-79397D02*
D03*
X65050Y-82932D02*
D03*
X61514Y-86468D02*
D03*
X54443Y-93539D02*
D03*
X50908Y-97074D02*
D03*
X47372Y-100610D02*
D03*
X43836Y-104145D02*
D03*
D31*
X97710Y-69266D02*
D03*
X87710Y-55194D02*
D03*
X92710D02*
D03*
X97710D02*
D03*
X92710Y-69266D02*
D03*
D32*
X127250Y-32090D02*
D03*
X63250D02*
D03*
X71250D02*
D03*
X119250D02*
D03*
D33*
X103483Y-104145D02*
D03*
X47372Y-117830D02*
D03*
X50908Y-121366D02*
D03*
X54443Y-124901D02*
D03*
X57979Y-128437D02*
D03*
X61514Y-131972D02*
D03*
X65050Y-135508D02*
D03*
X68585Y-139044D02*
D03*
X99948Y-100610D02*
D03*
X96412Y-97074D02*
D03*
X92877Y-93539D02*
D03*
X89341Y-90003D02*
D03*
X85806Y-86468D02*
D03*
X82270Y-82932D02*
D03*
X78735Y-79397D02*
D03*
D34*
X77750Y-32090D02*
D03*
X82750D02*
D03*
X87750D02*
D03*
X92750D02*
D03*
X97750D02*
D03*
X102750D02*
D03*
X107750D02*
D03*
X112750D02*
D03*
D35*
X87710Y-69266D02*
D03*
D36*
X43836Y-114295D02*
D03*
D37*
X313100Y87630D02*
D03*
Y-219710D02*
D03*
Y138430D02*
D03*
Y19050D02*
D03*
Y-151130D02*
D03*
Y-100330D02*
D03*
Y-270510D02*
D03*
Y-31750D02*
D03*
X245700Y-219710D02*
D03*
Y-57150D02*
D03*
Y19050D02*
D03*
Y-295910D02*
D03*
Y62230D02*
D03*
Y138430D02*
D03*
Y-176530D02*
D03*
Y-100330D02*
D03*
D38*
X214630Y99580D02*
D03*
Y75680D02*
D03*
Y38850D02*
D03*
Y62750D02*
D03*
Y-80530D02*
D03*
Y-56630D02*
D03*
Y-199910D02*
D03*
Y-176010D02*
D03*
D39*
Y-220420D02*
D03*
X221130Y-239320D02*
D03*
X208130D02*
D03*
X221130Y118820D02*
D03*
Y-119380D02*
D03*
Y-560D02*
D03*
X214630Y137720D02*
D03*
X208130Y118820D02*
D03*
X214630Y18340D02*
D03*
X208130Y-560D02*
D03*
X214630Y-100480D02*
D03*
X208130Y-119380D02*
D03*
D40*
X-13344Y-102070D02*
D03*
X139700Y-152280D02*
D03*
Y-137280D02*
D03*
X170180Y-152400D02*
D03*
Y-137400D02*
D03*
X111760Y-152280D02*
D03*
Y-137280D02*
D03*
X-13344Y-117070D02*
D03*
X1656Y-94570D02*
D03*
Y-109570D02*
D03*
Y-124570D02*
D03*
D41*
X73660Y-109220D02*
D03*
D42*
X-19558Y-38862D02*
D03*
Y-80518D02*
D03*
X1778D02*
D03*
Y-38862D02*
D03*
D43*
X186080Y-23700D02*
D03*
X176580Y0D02*
D03*
X195580D02*
D03*
Y-23700D02*
D03*
X176580D02*
D03*
D44*
X117530Y-43180D02*
D03*
X67890D02*
D03*
X76890D02*
D03*
X108530D02*
D03*
D45*
X186017Y10050D02*
D03*
X158750Y-18560D02*
D03*
X166370Y-8110D02*
D03*
Y490D02*
D03*
X158750Y-27160D02*
D03*
X186017Y1450D02*
D03*
D46*
X66366Y-52038D02*
D03*
X118924Y-51961D02*
D03*
X108424D02*
D03*
X76866Y-52038D02*
D03*
D47*
X43949Y-78239D02*
D03*
X50031Y-84321D02*
D03*
D48*
X71889Y-154171D02*
D03*
X78239Y-160521D02*
D03*
X84321Y-154439D02*
D03*
X77971Y-148089D02*
D03*
D49*
X149860Y-144090D02*
D03*
X180340D02*
D03*
X121920D02*
D03*
Y-153090D02*
D03*
X180340D02*
D03*
X149860D02*
D03*
D50*
X167640Y-18360D02*
D03*
Y-27360D02*
D03*
D51*
X476250Y-342900D02*
D03*
Y203200D02*
D03*
X0Y-162560D02*
D03*
Y0D02*
D03*
D52*
X451000Y133660D02*
D03*
X369000D02*
D03*
X451000Y83660D02*
D03*
X369000D02*
D03*
X451000Y33660D02*
D03*
X369000D02*
D03*
X451000Y-16340D02*
D03*
X369000D02*
D03*
X451000Y-66340D02*
D03*
X369000D02*
D03*
X451000Y-116340D02*
D03*
X369000D02*
D03*
X451000Y-166340D02*
D03*
X369000D02*
D03*
X451000Y-216340D02*
D03*
X369000D02*
D03*
X451000Y-266340D02*
D03*
X369000D02*
D03*
D53*
X138450Y15460D02*
D03*
X52050D02*
D03*
D54*
X138450Y-26340D02*
D03*
X52050D02*
D03*
D55*
X66350Y-21340D02*
D03*
X124150D02*
D03*
D56*
X476250Y-323850D02*
D03*
X462780Y-329430D02*
D03*
X457200Y-342900D02*
D03*
X462780Y-356370D02*
D03*
X476250Y-361950D02*
D03*
X489720Y-356370D02*
D03*
X495300Y-342900D02*
D03*
X489720Y-329430D02*
D03*
X476250Y222250D02*
D03*
X462780Y216670D02*
D03*
X457200Y203200D02*
D03*
X462780Y189730D02*
D03*
X476250Y184150D02*
D03*
X489720Y189730D02*
D03*
X495300Y203200D02*
D03*
X489720Y216670D02*
D03*
X13470Y-149090D02*
D03*
X19050Y-162560D02*
D03*
X13470Y-176030D02*
D03*
X0Y-181610D02*
D03*
X-13470Y-176030D02*
D03*
X-19050Y-162560D02*
D03*
X-13470Y-149090D02*
D03*
X0Y-143510D02*
D03*
X13470Y13470D02*
D03*
X19050Y0D02*
D03*
X13470Y-13470D02*
D03*
X0Y-19050D02*
D03*
X-13470Y-13470D02*
D03*
X-19050Y0D02*
D03*
X-13470Y13470D02*
D03*
X0Y19050D02*
D03*
M02*
