G04*
G04 #@! TF.GenerationSoftware,Altium Limited,Altium Designer,26.3.0 (6)*
G04*
G04 Layer_Color=255*
%FSLAX44Y44*%
%MOMM*%
G71*
G04*
G04 #@! TF.SameCoordinates,E7A8B358-94F2-4CCB-B9E2-53747866BEA0*
G04*
G04*
G04 #@! TF.FilePolarity,Positive*
G04*
G01*
G75*
G04:AMPARAMS|DCode=53|XSize=1mm|YSize=1.8mm|CornerRadius=0.5mm|HoleSize=0mm|Usage=FLASHONLY|Rotation=180.000|XOffset=0mm|YOffset=0mm|HoleType=Round|Shape=RoundedRectangle|*
%AMROUNDEDRECTD53*
21,1,1.0000,0.8000,0,0,180.0*
21,1,0.0000,1.8000,0,0,180.0*
1,1,1.0000,0.0000,0.4000*
1,1,1.0000,0.0000,0.4000*
1,1,1.0000,0.0000,-0.4000*
1,1,1.0000,0.0000,-0.4000*
%
%ADD53ROUNDEDRECTD53*%
G04:AMPARAMS|DCode=54|XSize=1mm|YSize=2.1mm|CornerRadius=0.5mm|HoleSize=0mm|Usage=FLASHONLY|Rotation=180.000|XOffset=0mm|YOffset=0mm|HoleType=Round|Shape=RoundedRectangle|*
%AMROUNDEDRECTD54*
21,1,1.0000,1.1000,0,0,180.0*
21,1,0.0000,2.1000,0,0,180.0*
1,1,1.0000,0.0000,0.5500*
1,1,1.0000,0.0000,0.5500*
1,1,1.0000,0.0000,-0.5500*
1,1,1.0000,0.0000,-0.5500*
%
%ADD54ROUNDEDRECTD54*%
%ADD55C,0.6500*%
%ADD59C,5.0000*%
%ADD60C,1.9500*%
D53*
X138450Y15460D02*
D03*
X52050D02*
D03*
D54*
X138450Y-26340D02*
D03*
X52050D02*
D03*
D55*
X66350Y-21340D02*
D03*
X124150D02*
D03*
D59*
X476250Y-342900D02*
D03*
Y203200D02*
D03*
X0Y-162560D02*
D03*
Y0D02*
D03*
D60*
X451000Y133660D02*
D03*
X369000D02*
D03*
X451000Y83660D02*
D03*
X369000D02*
D03*
X451000Y33660D02*
D03*
X369000D02*
D03*
X451000Y-16340D02*
D03*
X369000D02*
D03*
X451000Y-66340D02*
D03*
X369000D02*
D03*
X451000Y-116340D02*
D03*
X369000D02*
D03*
X451000Y-166340D02*
D03*
X369000D02*
D03*
X451000Y-216340D02*
D03*
X369000D02*
D03*
X451000Y-266340D02*
D03*
X369000D02*
D03*
M02*
