G04*
G04 #@! TF.GenerationSoftware,Altium Limited,Altium Designer,26.3.0 (6)*
G04*
G04 Layer_Physical_Order=2*
G04 Layer_Color=32768*
%FSLAX44Y44*%
%MOMM*%
G71*
G04*
G04 #@! TF.SameCoordinates,E7A8B358-94F2-4CCB-B9E2-53747866BEA0*
G04*
G04*
G04 #@! TF.FilePolarity,Negative*
G04*
G01*
G75*
%ADD14C,0.2540*%
%ADD63C,1.0160*%
%ADD64C,2.9064*%
%ADD65C,1.7064*%
G04:AMPARAMS|DCode=66|XSize=2.3064mm|YSize=2.3064mm|CornerRadius=0mm|HoleSize=0mm|Usage=FLASHONLY|Rotation=0.000|XOffset=0mm|YOffset=0mm|HoleType=Round|Shape=Relief|Width=0.2032mm|Gap=0.2032mm|Entries=4|*
%AMTHD66*
7,0,0,2.3064,1.9000,0.2032,45*
%
%ADD66THD66*%
%AMTHOVALD67*
21,1,0.8000,1.6064,0,0,270.0*
1,1,1.6064,0.0000,0.4000*
1,1,1.6064,0.0000,-0.4000*
21,0,0.8000,1.2000,0,0,270.0*
1,0,1.2000,0.0000,0.4000*
1,0,1.2000,0.0000,-0.4000*
4,0,4,-0.0718,0.3282,-0.6398,0.8961,-0.4961,1.0398,0.0718,0.4718,-0.0718,0.3282,0.0*
4,0,4,-0.0718,-0.4718,0.4961,-1.0398,0.6398,-0.8961,0.0718,-0.3282,-0.0718,-0.4718,0.0*
4,0,4,-0.0718,0.4718,0.4961,1.0398,0.6398,0.8961,0.0718,0.3282,-0.0718,0.4718,0.0*
4,0,4,-0.0718,-0.3282,-0.6398,-0.8961,-0.4961,-1.0398,0.0718,-0.4718,-0.0718,-0.3282,0.0*
%
%ADD67THOVALD67*%

%AMTHOVALD68*
21,1,1.1000,1.6064,0,0,270.0*
1,1,1.6064,0.0000,0.5500*
1,1,1.6064,0.0000,-0.5500*
21,0,1.1000,1.2000,0,0,270.0*
1,0,1.2000,0.0000,0.5500*
1,0,1.2000,0.0000,-0.5500*
4,0,4,-0.0718,0.4782,-0.6398,1.0461,-0.4961,1.1898,0.0718,0.6218,-0.0718,0.4782,0.0*
4,0,4,-0.0718,-0.6218,0.4961,-1.1898,0.6398,-1.0461,0.0718,-0.4782,-0.0718,-0.6218,0.0*
4,0,4,-0.0718,0.6218,0.4961,1.1898,0.6398,1.0461,0.0718,0.4782,-0.0718,0.6218,0.0*
4,0,4,-0.0718,-0.4782,-0.6398,-1.0461,-0.4961,-1.1898,0.0718,-0.6218,-0.0718,-0.4782,0.0*
%
%ADD68THOVALD68*%

%ADD69C,1.0564*%
%ADD70C,0.7064*%
G36*
X282341Y153151D02*
X284079Y152148D01*
X285497Y150729D01*
X286501Y148991D01*
X287020Y147053D01*
Y146050D01*
Y54610D01*
Y53607D01*
X286501Y51669D01*
X285497Y49931D01*
X284079Y48513D01*
X282341Y47509D01*
X280403Y46990D01*
X278397D01*
X276459Y47509D01*
X274721Y48513D01*
X273302Y49931D01*
X272299Y51669D01*
X271780Y53607D01*
Y54610D01*
Y146050D01*
Y147053D01*
X272299Y148991D01*
X273302Y150729D01*
X274721Y152148D01*
X276459Y153151D01*
X278397Y153670D01*
X280403D01*
X282341Y153151D01*
D02*
G37*
G36*
Y33771D02*
X284079Y32768D01*
X285497Y31349D01*
X286501Y29611D01*
X287020Y27673D01*
Y26670D01*
Y-64770D01*
Y-65773D01*
X286501Y-67711D01*
X285497Y-69449D01*
X284079Y-70868D01*
X282341Y-71871D01*
X280403Y-72390D01*
X278397D01*
X276459Y-71871D01*
X274721Y-70868D01*
X273302Y-69449D01*
X272299Y-67711D01*
X271780Y-65773D01*
Y-64770D01*
Y26670D01*
Y27673D01*
X272299Y29611D01*
X273302Y31349D01*
X274721Y32768D01*
X276459Y33771D01*
X278397Y34290D01*
X280403D01*
X282341Y33771D01*
D02*
G37*
G36*
Y-85609D02*
X284079Y-86613D01*
X285497Y-88031D01*
X286501Y-89769D01*
X287020Y-91707D01*
Y-92710D01*
Y-184150D01*
Y-185153D01*
X286501Y-187091D01*
X285497Y-188829D01*
X284079Y-190247D01*
X282341Y-191251D01*
X280403Y-191770D01*
X278397D01*
X276459Y-191251D01*
X274721Y-190247D01*
X273302Y-188829D01*
X272299Y-187091D01*
X271780Y-185153D01*
Y-184150D01*
Y-92710D01*
Y-91707D01*
X272299Y-89769D01*
X273302Y-88031D01*
X274721Y-86613D01*
X276459Y-85609D01*
X278397Y-85090D01*
X280403D01*
X282341Y-85609D01*
D02*
G37*
G36*
Y-204989D02*
X284079Y-205993D01*
X285497Y-207411D01*
X286501Y-209149D01*
X287020Y-211087D01*
Y-212090D01*
Y-303530D01*
Y-304533D01*
X286501Y-306471D01*
X285497Y-308209D01*
X284079Y-309627D01*
X282341Y-310631D01*
X280403Y-311150D01*
X278397D01*
X276459Y-310631D01*
X274721Y-309627D01*
X273302Y-308209D01*
X272299Y-306471D01*
X271780Y-304533D01*
Y-303530D01*
Y-212090D01*
Y-211087D01*
X272299Y-209149D01*
X273302Y-207411D01*
X274721Y-205993D01*
X276459Y-204989D01*
X278397Y-204470D01*
X280403D01*
X282341Y-204989D01*
D02*
G37*
D14*
X279400Y237490D02*
X279400Y-374650D01*
D63*
X497821Y236220D02*
X500274Y235732D01*
X201949Y236220D02*
X497821D01*
X201949Y-374650D02*
X497821D01*
X500274Y-374162D01*
X502586Y-373205D01*
X504666Y-371815D01*
X506435Y-370046D01*
X507825Y-367966D01*
X508782Y-365654D01*
X509270Y-363201D01*
Y-361950D01*
Y223520D01*
Y224771D01*
X508782Y227224D02*
X509270Y224771D01*
X507825Y229536D02*
X508782Y227224D01*
X506435Y231616D02*
X507825Y229536D01*
X504666Y233385D02*
X506435Y231616D01*
X502586Y234775D02*
X504666Y233385D01*
X500274Y235732D02*
X502586Y234775D01*
X199496Y235732D02*
X201949Y236220D01*
X197184Y234775D02*
X199496Y235732D01*
X195104Y233385D02*
X197184Y234775D01*
X193335Y231616D02*
X195104Y233385D01*
X191945Y229536D02*
X193335Y231616D01*
X190988Y227224D02*
X191945Y229536D01*
X190500Y224771D02*
X190988Y227224D01*
X190500Y223520D02*
Y224771D01*
Y44450D02*
Y223520D01*
Y-361950D02*
Y-207010D01*
Y-363201D02*
Y-361950D01*
Y-363201D02*
X190988Y-365654D01*
X191945Y-367966D01*
X193335Y-370046D01*
X195104Y-371815D01*
X197184Y-373205D01*
X199496Y-374162D01*
X201949Y-374650D01*
X280403Y-204470D02*
X282341Y-204989D01*
X284079Y-205993D01*
X285497Y-207411D01*
X286501Y-209149D01*
X287020Y-211087D01*
Y-212090D02*
Y-211087D01*
Y-303530D02*
Y-212090D01*
Y-304533D02*
Y-303530D01*
X286501Y-306471D02*
X287020Y-304533D01*
X285497Y-308209D02*
X286501Y-306471D01*
X284079Y-309627D02*
X285497Y-308209D01*
X282341Y-310631D02*
X284079Y-309627D01*
X280403Y-311150D02*
X282341Y-310631D01*
X278397Y-311150D02*
X280403D01*
X276459Y-310631D02*
X278397Y-311150D01*
X274721Y-309627D02*
X276459Y-310631D01*
X273302Y-308209D02*
X274721Y-309627D01*
X272299Y-306471D02*
X273302Y-308209D01*
X271780Y-304533D02*
X272299Y-306471D01*
X271780Y-304533D02*
Y-303530D01*
Y-212090D01*
Y-211087D01*
X272299Y-209149D01*
X273302Y-207411D01*
X274721Y-205993D01*
X276459Y-204989D01*
X278397Y-204470D01*
X280403D01*
Y-85090D02*
X282341Y-85609D01*
X284079Y-86613D01*
X285497Y-88031D01*
X286501Y-89769D01*
X287020Y-91707D01*
Y-92710D02*
Y-91707D01*
Y-184150D02*
Y-92710D01*
Y-185153D02*
Y-184150D01*
X286501Y-187091D02*
X287020Y-185153D01*
X285497Y-188829D02*
X286501Y-187091D01*
X284079Y-190247D02*
X285497Y-188829D01*
X282341Y-191251D02*
X284079Y-190247D01*
X280403Y-191770D02*
X282341Y-191251D01*
X278397Y-191770D02*
X280403D01*
X276459Y-191251D02*
X278397Y-191770D01*
X274721Y-190247D02*
X276459Y-191251D01*
X273302Y-188829D02*
X274721Y-190247D01*
X272299Y-187091D02*
X273302Y-188829D01*
X271780Y-185153D02*
X272299Y-187091D01*
X271780Y-185153D02*
Y-184150D01*
Y-92710D01*
Y-91707D01*
X272299Y-89769D01*
X273302Y-88031D01*
X274721Y-86613D01*
X276459Y-85609D01*
X278397Y-85090D01*
X280403D01*
Y34290D02*
X282341Y33771D01*
X284079Y32768D01*
X285497Y31349D01*
X286501Y29611D01*
X287020Y27673D01*
Y26670D02*
Y27673D01*
Y-64770D02*
Y26670D01*
Y-65773D02*
Y-64770D01*
X286501Y-67711D02*
X287020Y-65773D01*
X285497Y-69449D02*
X286501Y-67711D01*
X284079Y-70868D02*
X285497Y-69449D01*
X282341Y-71871D02*
X284079Y-70868D01*
X280403Y-72390D02*
X282341Y-71871D01*
X278397Y-72390D02*
X280403D01*
X276459Y-71871D02*
X278397Y-72390D01*
X274721Y-70868D02*
X276459Y-71871D01*
X273302Y-69449D02*
X274721Y-70868D01*
X272299Y-67711D02*
X273302Y-69449D01*
X271780Y-65773D02*
X272299Y-67711D01*
X271780Y-65773D02*
Y-64770D01*
Y26670D01*
Y27673D01*
X272299Y29611D01*
X273302Y31349D01*
X274721Y32768D01*
X276459Y33771D01*
X278397Y34290D01*
X280403D01*
Y153670D02*
X282341Y153151D01*
X284079Y152148D01*
X285497Y150729D01*
X286501Y148991D01*
X287020Y147053D01*
Y146050D02*
Y147053D01*
Y54610D02*
Y146050D01*
Y53607D02*
Y54610D01*
X286501Y51669D02*
X287020Y53607D01*
X285497Y49931D02*
X286501Y51669D01*
X284079Y48513D02*
X285497Y49931D01*
X282341Y47509D02*
X284079Y48513D01*
X280403Y46990D02*
X282341Y47509D01*
X278397Y46990D02*
X280403D01*
X276459Y47509D02*
X278397Y46990D01*
X274721Y48513D02*
X276459Y47509D01*
X273302Y49931D02*
X274721Y48513D01*
X272299Y51669D02*
X273302Y49931D01*
X271780Y53607D02*
X272299Y51669D01*
X271780Y53607D02*
Y54610D01*
Y146050D01*
Y147053D01*
X272299Y148991D01*
X273302Y150729D01*
X274721Y152148D01*
X276459Y153151D01*
X278397Y153670D01*
X280403D01*
X190439Y43205D02*
X190500Y44450D01*
X189953Y40763D02*
X190439Y43205D01*
X189000Y38463D02*
X189953Y40763D01*
X187617Y36393D02*
X189000Y38463D01*
X185857Y34633D02*
X187617Y36393D01*
X183787Y33250D02*
X185857Y34633D01*
X181487Y32297D02*
X183787Y33250D01*
X179045Y31811D02*
X181487Y32297D01*
X177800Y31750D02*
X179045Y31811D01*
X-20301Y31750D02*
X177800D01*
X-22754Y31262D02*
X-20301Y31750D01*
X-25066Y30305D02*
X-22754Y31262D01*
X-27146Y28915D02*
X-25066Y30305D01*
X-28915Y27146D02*
X-27146Y28915D01*
X-30305Y25066D02*
X-28915Y27146D01*
X-31262Y22754D02*
X-30305Y25066D01*
X-31750Y20301D02*
X-31262Y22754D01*
X-31750Y19050D02*
Y20301D01*
Y-182861D02*
Y-181610D01*
Y-182861D02*
X-31262Y-185315D01*
X-30305Y-187626D01*
X-28915Y-189706D01*
X-27146Y-191475D01*
X-25066Y-192865D01*
X-22754Y-193822D01*
X-20301Y-194310D01*
X177800D01*
X179045Y-194371D01*
X181487Y-194857D01*
X183787Y-195810D01*
X185857Y-197193D01*
X187617Y-198953D01*
X189000Y-201023D01*
X189953Y-203323D01*
X190439Y-205765D01*
X190500Y-207010D01*
X-31750Y-181610D02*
Y19050D01*
D64*
X476250Y-342900D02*
D03*
Y203200D02*
D03*
X0Y-162560D02*
D03*
Y0D02*
D03*
D65*
X451000Y133660D02*
D03*
X369000D02*
D03*
X451000Y83660D02*
D03*
X369000D02*
D03*
X451000Y33660D02*
D03*
X369000D02*
D03*
X451000Y-16340D02*
D03*
X369000D02*
D03*
X451000Y-66340D02*
D03*
Y-116340D02*
D03*
X369000D02*
D03*
X451000Y-166340D02*
D03*
X369000D02*
D03*
X451000Y-216340D02*
D03*
X369000D02*
D03*
X451000Y-266340D02*
D03*
X369000D02*
D03*
D66*
Y-66340D02*
D03*
D67*
X138450Y15460D02*
D03*
X52050D02*
D03*
D68*
X138450Y-26340D02*
D03*
X52050D02*
D03*
D69*
X66350Y-21340D02*
D03*
X124150D02*
D03*
D70*
X476250Y-323850D02*
D03*
X462780Y-329430D02*
D03*
X457200Y-342900D02*
D03*
X462780Y-356370D02*
D03*
X476250Y-361950D02*
D03*
X489720Y-356370D02*
D03*
X495300Y-342900D02*
D03*
X489720Y-329430D02*
D03*
X476250Y222250D02*
D03*
X462780Y216670D02*
D03*
X457200Y203200D02*
D03*
X462780Y189730D02*
D03*
X476250Y184150D02*
D03*
X489720Y189730D02*
D03*
X495300Y203200D02*
D03*
X489720Y216670D02*
D03*
X89356Y-148353D02*
D03*
X13470Y-149090D02*
D03*
X19050Y-162560D02*
D03*
X13470Y-176030D02*
D03*
X0Y-181610D02*
D03*
X-13470Y-176030D02*
D03*
X-19050Y-162560D02*
D03*
X-13470Y-149090D02*
D03*
X0Y-143510D02*
D03*
X13470Y13470D02*
D03*
X19050Y0D02*
D03*
X13470Y-13470D02*
D03*
X0Y-19050D02*
D03*
X-13470Y-13470D02*
D03*
X-19050Y0D02*
D03*
X-13470Y13470D02*
D03*
X0Y19050D02*
D03*
X208205Y-250115D02*
D03*
X114565Y-94287D02*
D03*
X106680Y-92755D02*
D03*
X105399Y-84826D02*
D03*
X96520Y-82550D02*
D03*
X-13970Y-125730D02*
D03*
X208205Y-11355D02*
D03*
Y108025D02*
D03*
X208280Y-129540D02*
D03*
X228600Y-295910D02*
D03*
Y-176530D02*
D03*
Y-57150D02*
D03*
Y62230D02*
D03*
X170180Y-129540D02*
D03*
X167640Y-34290D02*
D03*
X114300Y-20320D02*
D03*
X76200D02*
D03*
X176530Y10160D02*
D03*
X139700Y-129540D02*
D03*
X43899Y-90170D02*
D03*
M02*
