G04*
G04 #@! TF.GenerationSoftware,Altium Limited,Altium Designer,26.3.0 (6)*
G04*
G04 Layer_Physical_Order=1*
G04 Layer_Color=255*
%FSLAX44Y44*%
%MOMM*%
G71*
G04*
G04 #@! TF.SameCoordinates,E7A8B358-94F2-4CCB-B9E2-53747866BEA0*
G04*
G04*
G04 #@! TF.FilePolarity,Positive*
G04*
G01*
G75*
%ADD11C,0.2500*%
%ADD14C,0.2540*%
%ADD17R,2.6600X0.8000*%
G04:AMPARAMS|DCode=18|XSize=1.03mm|YSize=0.46mm|CornerRadius=0.0575mm|HoleSize=0mm|Usage=FLASHONLY|Rotation=90.000|XOffset=0mm|YOffset=0mm|HoleType=Round|Shape=RoundedRectangle|*
%AMROUNDEDRECTD18*
21,1,1.0300,0.3450,0,0,90.0*
21,1,0.9150,0.4600,0,0,90.0*
1,1,0.1150,0.1725,0.4575*
1,1,0.1150,0.1725,-0.4575*
1,1,0.1150,-0.1725,-0.4575*
1,1,0.1150,-0.1725,0.4575*
%
%ADD18ROUNDEDRECTD18*%
G04:AMPARAMS|DCode=19|XSize=1.28mm|YSize=0.48mm|CornerRadius=0.06mm|HoleSize=0mm|Usage=FLASHONLY|Rotation=90.000|XOffset=0mm|YOffset=0mm|HoleType=Round|Shape=RoundedRectangle|*
%AMROUNDEDRECTD19*
21,1,1.2800,0.3600,0,0,90.0*
21,1,1.1600,0.4800,0,0,90.0*
1,1,0.1200,0.1800,0.5800*
1,1,0.1200,0.1800,-0.5800*
1,1,0.1200,-0.1800,-0.5800*
1,1,0.1200,-0.1800,0.5800*
%
%ADD19ROUNDEDRECTD19*%
%ADD20R,0.8000X0.8000*%
G04:AMPARAMS|DCode=21|XSize=0.2393mm|YSize=0.9354mm|CornerRadius=0.1196mm|HoleSize=0mm|Usage=FLASHONLY|Rotation=45.000|XOffset=0mm|YOffset=0mm|HoleType=Round|Shape=RoundedRectangle|*
%AMROUNDEDRECTD21*
21,1,0.2393,0.6961,0,0,45.0*
21,1,0.0000,0.9354,0,0,45.0*
1,1,0.2393,0.2461,-0.2461*
1,1,0.2393,0.2461,-0.2461*
1,1,0.2393,-0.2461,0.2461*
1,1,0.2393,-0.2461,0.2461*
%
%ADD21ROUNDEDRECTD21*%
%ADD22R,0.7500X1.0000*%
G04:AMPARAMS|DCode=23|XSize=1.24mm|YSize=0.55mm|CornerRadius=0.0688mm|HoleSize=0mm|Usage=FLASHONLY|Rotation=90.000|XOffset=0mm|YOffset=0mm|HoleType=Round|Shape=RoundedRectangle|*
%AMROUNDEDRECTD23*
21,1,1.2400,0.4125,0,0,90.0*
21,1,1.1025,0.5500,0,0,90.0*
1,1,0.1375,0.2063,0.5513*
1,1,0.1375,0.2063,-0.5513*
1,1,0.1375,-0.2063,-0.5513*
1,1,0.1375,-0.2063,0.5513*
%
%ADD23ROUNDEDRECTD23*%
%ADD24R,0.5500X0.5500*%
%ADD25R,0.6200X0.6600*%
%ADD26R,0.5000X0.6000*%
G04:AMPARAMS|DCode=27|XSize=0.62mm|YSize=0.66mm|CornerRadius=0mm|HoleSize=0mm|Usage=FLASHONLY|Rotation=225.000|XOffset=0mm|YOffset=0mm|HoleType=Round|Shape=Rectangle|*
%AMROTATEDRECTD27*
4,1,4,-0.0141,0.4526,0.4526,-0.0141,0.0141,-0.4526,-0.4526,0.0141,-0.0141,0.4526,0.0*
%
%ADD27ROTATEDRECTD27*%

G04:AMPARAMS|DCode=28|XSize=0.62mm|YSize=0.66mm|CornerRadius=0mm|HoleSize=0mm|Usage=FLASHONLY|Rotation=315.000|XOffset=0mm|YOffset=0mm|HoleType=Round|Shape=Rectangle|*
%AMROTATEDRECTD28*
4,1,4,-0.4526,-0.0141,0.0141,0.4526,0.4526,0.0141,-0.0141,-0.4526,-0.4526,-0.0141,0.0*
%
%ADD28ROTATEDRECTD28*%

%ADD29R,0.5500X0.5500*%
G04:AMPARAMS|DCode=30|XSize=0.55mm|YSize=0.5mm|CornerRadius=0.0625mm|HoleSize=0mm|Usage=FLASHONLY|Rotation=180.000|XOffset=0mm|YOffset=0mm|HoleType=Round|Shape=RoundedRectangle|*
%AMROUNDEDRECTD30*
21,1,0.5500,0.3750,0,0,180.0*
21,1,0.4250,0.5000,0,0,180.0*
1,1,0.1250,-0.2125,0.1875*
1,1,0.1250,0.2125,0.1875*
1,1,0.1250,0.2125,-0.1875*
1,1,0.1250,-0.2125,-0.1875*
%
%ADD30ROUNDEDRECTD30*%
G04:AMPARAMS|DCode=31|XSize=0.9654mm|YSize=0.2393mm|CornerRadius=0.1196mm|HoleSize=0mm|Usage=FLASHONLY|Rotation=90.000|XOffset=0mm|YOffset=0mm|HoleType=Round|Shape=RoundedRectangle|*
%AMROUNDEDRECTD31*
21,1,0.9654,0.0000,0,0,90.0*
21,1,0.7261,0.2393,0,0,90.0*
1,1,0.2393,0.0000,0.3630*
1,1,0.2393,0.0000,-0.3630*
1,1,0.2393,0.0000,-0.3630*
1,1,0.2393,0.0000,0.3630*
%
%ADD31ROUNDEDRECTD31*%
%ADD32R,0.6000X1.1500*%
G04:AMPARAMS|DCode=33|XSize=0.9354mm|YSize=0.2393mm|CornerRadius=0.1196mm|HoleSize=0mm|Usage=FLASHONLY|Rotation=45.000|XOffset=0mm|YOffset=0mm|HoleType=Round|Shape=RoundedRectangle|*
%AMROUNDEDRECTD33*
21,1,0.9354,0.0000,0,0,45.0*
21,1,0.6961,0.2393,0,0,45.0*
1,1,0.2393,0.2461,0.2461*
1,1,0.2393,-0.2461,-0.2461*
1,1,0.2393,-0.2461,-0.2461*
1,1,0.2393,0.2461,0.2461*
%
%ADD33ROUNDEDRECTD33*%
%ADD34R,0.3000X1.1500*%
%ADD35R,0.2393X0.9654*%
G04:AMPARAMS|DCode=36|XSize=0.9354mm|YSize=0.2393mm|CornerRadius=0mm|HoleSize=0mm|Usage=FLASHONLY|Rotation=45.000|XOffset=0mm|YOffset=0mm|HoleType=Round|Shape=Rectangle|*
%AMROTATEDRECTD36*
4,1,4,-0.2461,-0.4153,-0.4153,-0.2461,0.2461,0.4153,0.4153,0.2461,-0.2461,-0.4153,0.0*
%
%ADD36ROTATEDRECTD36*%

%ADD41P,5.2326X4X90.0*%
G04:AMPARAMS|DCode=53|XSize=1mm|YSize=1.8mm|CornerRadius=0.5mm|HoleSize=0mm|Usage=FLASHONLY|Rotation=180.000|XOffset=0mm|YOffset=0mm|HoleType=Round|Shape=RoundedRectangle|*
%AMROUNDEDRECTD53*
21,1,1.0000,0.8000,0,0,180.0*
21,1,0.0000,1.8000,0,0,180.0*
1,1,1.0000,0.0000,0.4000*
1,1,1.0000,0.0000,0.4000*
1,1,1.0000,0.0000,-0.4000*
1,1,1.0000,0.0000,-0.4000*
%
%ADD53ROUNDEDRECTD53*%
G04:AMPARAMS|DCode=54|XSize=1mm|YSize=2.1mm|CornerRadius=0.5mm|HoleSize=0mm|Usage=FLASHONLY|Rotation=180.000|XOffset=0mm|YOffset=0mm|HoleType=Round|Shape=RoundedRectangle|*
%AMROUNDEDRECTD54*
21,1,1.0000,1.1000,0,0,180.0*
21,1,0.0000,2.1000,0,0,180.0*
1,1,1.0000,0.0000,0.5500*
1,1,1.0000,0.0000,0.5500*
1,1,1.0000,0.0000,-0.5500*
1,1,1.0000,0.0000,-0.5500*
%
%ADD54ROUNDEDRECTD54*%
%ADD55C,0.6500*%
%ADD57C,0.7500*%
%ADD58C,0.1500*%
%ADD59C,5.0000*%
%ADD60C,1.9500*%
%ADD61C,0.6000*%
%ADD62C,0.4000*%
G36*
X266700Y-372611D02*
X202150D01*
X200090Y-372201D01*
X198150Y-371398D01*
X196404Y-370231D01*
X194919Y-368746D01*
X193752Y-367000D01*
X192949Y-365060D01*
X192539Y-363000D01*
Y-361950D01*
Y-207010D01*
X192529Y-206960D01*
X192537Y-206910D01*
X192475Y-205665D01*
X192439Y-205518D01*
Y-205367D01*
X191953Y-202926D01*
X191876Y-202740D01*
X191837Y-202543D01*
X190884Y-200243D01*
X190773Y-200076D01*
X190696Y-199890D01*
X189313Y-197820D01*
X189171Y-197678D01*
X189059Y-197511D01*
X187299Y-195751D01*
X187132Y-195639D01*
X186990Y-195497D01*
X184920Y-194114D01*
X184734Y-194037D01*
X184567Y-193926D01*
X182267Y-192973D01*
X182070Y-192934D01*
X181884Y-192857D01*
X179443Y-192371D01*
X179291D01*
X179145Y-192335D01*
X177900Y-192273D01*
X177850Y-192281D01*
X177800Y-192271D01*
X-20100D01*
X-22160Y-191861D01*
X-24100Y-191058D01*
X-25846Y-189891D01*
X-27331Y-188406D01*
X-28498Y-186660D01*
X-29301Y-184720D01*
X-29711Y-182660D01*
Y-181610D01*
Y19050D01*
Y20100D01*
X-29301Y22160D01*
X-28498Y24100D01*
X-27331Y25846D01*
X-25846Y27331D01*
X-24100Y28498D01*
X-22160Y29301D01*
X-20100Y29711D01*
X177800D01*
X177850Y29721D01*
X177900Y29713D01*
X179145Y29774D01*
X179291Y29811D01*
X179443D01*
X181884Y30297D01*
X182070Y30374D01*
X182267Y30413D01*
X184567Y31366D01*
X184734Y31477D01*
X184920Y31554D01*
X186990Y32937D01*
X187132Y33079D01*
X187299Y33191D01*
X189059Y34951D01*
X189171Y35118D01*
X189313Y35260D01*
X190696Y37330D01*
X190773Y37516D01*
X190884Y37683D01*
X191837Y39983D01*
X191876Y40180D01*
X191953Y40366D01*
X192439Y42807D01*
Y42958D01*
X192475Y43105D01*
X192537Y44350D01*
X192529Y44400D01*
X192539Y44450D01*
Y223520D01*
Y224570D01*
X192949Y226630D01*
X193752Y228570D01*
X194919Y230316D01*
X196404Y231801D01*
X198150Y232968D01*
X200090Y233771D01*
X202150Y234181D01*
X266700D01*
Y-372611D01*
D02*
G37*
G36*
X499680Y233771D02*
X501620Y232968D01*
X503366Y231801D01*
X504851Y230316D01*
X506018Y228570D01*
X506821Y226630D01*
X507231Y224570D01*
Y223520D01*
Y-361950D01*
Y-363000D01*
X506821Y-365060D01*
X506018Y-367000D01*
X504851Y-368746D01*
X503366Y-370231D01*
X501620Y-371398D01*
X499680Y-372201D01*
X497620Y-372611D01*
X292100D01*
Y234181D01*
X497620D01*
X499680Y233771D01*
D02*
G37*
%LPC*%
G36*
X216430Y146203D02*
X212830D01*
X211803Y145999D01*
X210932Y145417D01*
X210351Y144547D01*
X210146Y143520D01*
Y131920D01*
X210351Y130893D01*
X210932Y130022D01*
X210476Y128044D01*
X209930Y127304D01*
X206330D01*
X205303Y127099D01*
X204432Y126518D01*
X203851Y125647D01*
X203646Y124620D01*
Y113020D01*
X203851Y111993D01*
X204334Y111270D01*
X203939Y110875D01*
X203173Y109026D01*
Y107024D01*
X203939Y105175D01*
X205355Y103759D01*
X207204Y102993D01*
X209206D01*
X210247Y102297D01*
Y95005D01*
X210449Y93988D01*
X211026Y93125D01*
X211888Y92549D01*
X212905Y92347D01*
X216355D01*
X217372Y92549D01*
X218235Y93125D01*
X218811Y93988D01*
X219013Y95005D01*
Y104155D01*
X218811Y105172D01*
X218235Y106034D01*
X217997Y106194D01*
Y108530D01*
X219330Y110337D01*
X220114D01*
Y118820D01*
Y127304D01*
X219330D01*
X218784Y128044D01*
X218328Y130022D01*
X218909Y130893D01*
X219114Y131920D01*
Y134353D01*
X230368D01*
Y132398D01*
X261032D01*
Y144462D01*
X230368D01*
Y141087D01*
X219114D01*
Y143520D01*
X218909Y144547D01*
X218328Y145417D01*
X217457Y145999D01*
X216430Y146203D01*
D02*
G37*
G36*
X222930Y127304D02*
X222146D01*
Y119836D01*
X225614D01*
Y124620D01*
X225409Y125647D01*
X224828Y126518D01*
X223957Y127099D01*
X222930Y127304D01*
D02*
G37*
G36*
X225614Y117804D02*
X222146D01*
Y110337D01*
X222930D01*
X223957Y110541D01*
X224828Y111123D01*
X225409Y111993D01*
X225614Y113020D01*
Y117804D01*
D02*
G37*
G36*
X216355Y82913D02*
X212905D01*
X211888Y82711D01*
X211026Y82135D01*
X210449Y81272D01*
X210247Y80255D01*
Y71105D01*
X210449Y70088D01*
X211019Y69215D01*
X210449Y68342D01*
X210247Y67325D01*
Y58175D01*
X210449Y57158D01*
X211026Y56295D01*
X211888Y55719D01*
X212905Y55517D01*
X216355D01*
X217372Y55719D01*
X218235Y56295D01*
X218261Y56335D01*
X230368D01*
Y56198D01*
X261032D01*
Y68262D01*
X230368D01*
Y68125D01*
X219943D01*
X218811Y70088D01*
X219013Y71105D01*
Y80255D01*
X218811Y81272D01*
X218235Y82135D01*
X217372Y82711D01*
X216355Y82913D01*
D02*
G37*
G36*
X53066Y26419D02*
Y16476D01*
X59143D01*
Y19460D01*
X58901Y21296D01*
X58192Y23006D01*
X57065Y24475D01*
X55596Y25602D01*
X53886Y26311D01*
X53066Y26419D01*
D02*
G37*
G36*
X139466D02*
Y16476D01*
X145543D01*
Y19460D01*
X145301Y21296D01*
X144592Y23006D01*
X143465Y24475D01*
X141996Y25602D01*
X140286Y26311D01*
X139466Y26419D01*
D02*
G37*
G36*
X51034D02*
X50214Y26311D01*
X48504Y25602D01*
X47035Y24475D01*
X45908Y23006D01*
X45199Y21296D01*
X44957Y19460D01*
Y16476D01*
X51034D01*
Y26419D01*
D02*
G37*
G36*
X137434D02*
X136614Y26311D01*
X134904Y25602D01*
X133435Y24475D01*
X132308Y23006D01*
X131599Y21296D01*
X131357Y19460D01*
Y16476D01*
X137434D01*
Y26419D01*
D02*
G37*
G36*
X180885Y15382D02*
X178853Y14644D01*
X177531Y15192D01*
X175529D01*
X173680Y14426D01*
X172264Y13010D01*
X171498Y11161D01*
Y9159D01*
X172150Y7586D01*
X171487Y6476D01*
X170878Y5822D01*
X161238D01*
Y-4842D01*
Y-7094D01*
X166370D01*
Y-9126D01*
X161238D01*
Y-13228D01*
X159766D01*
Y-18560D01*
X158750D01*
Y-19576D01*
X153618D01*
Y-23892D01*
Y-32492D01*
X162075D01*
X162608Y-33289D01*
Y-35291D01*
X163374Y-37140D01*
X164790Y-38556D01*
X166639Y-39322D01*
X168641D01*
X170490Y-38556D01*
X171906Y-37140D01*
X172672Y-35291D01*
Y-33532D01*
X172693Y-33485D01*
X173462Y-32643D01*
X174315Y-31945D01*
X174517Y-31985D01*
X178643D01*
X179704Y-31774D01*
X180603Y-31173D01*
X182057D01*
X182956Y-31774D01*
X184018Y-31985D01*
X185064D01*
Y-23700D01*
X187096D01*
Y-31985D01*
X188143D01*
X189204Y-31774D01*
X190103Y-31173D01*
X191557D01*
X192456Y-31774D01*
X193517Y-31985D01*
X197642D01*
X198704Y-31774D01*
X199603Y-31173D01*
X200204Y-30274D01*
X200415Y-29213D01*
Y-18188D01*
X200204Y-17126D01*
X199603Y-16227D01*
X198704Y-15626D01*
X197642Y-15415D01*
X196631D01*
X196481Y-15189D01*
X193109Y-11817D01*
X192016Y-11088D01*
X190728Y-10831D01*
X181382D01*
X180094Y-11087D01*
X179001Y-11817D01*
X175679Y-15139D01*
X175495Y-15415D01*
X174517D01*
X173456Y-15626D01*
X171945Y-14727D01*
X171502Y-13442D01*
X171502Y-13442D01*
Y-9212D01*
X173446Y-8080D01*
X173534Y-8090D01*
X174517Y-8285D01*
X178643D01*
X179704Y-8074D01*
X180603Y-7473D01*
X181204Y-6574D01*
X181415Y-5512D01*
Y-3882D01*
X190745D01*
Y-5512D01*
X190956Y-6574D01*
X191557Y-7473D01*
X192456Y-8074D01*
X193517Y-8285D01*
X197642D01*
X198704Y-8074D01*
X199603Y-7473D01*
X200204Y-6574D01*
X200415Y-5512D01*
Y5512D01*
X200204Y6574D01*
X199603Y7473D01*
X198704Y8074D01*
X197642Y8285D01*
X193517D01*
X193181Y8218D01*
X191846Y9034D01*
X186017D01*
Y10050D01*
X185001D01*
Y15382D01*
X180885D01*
X180885Y15382D01*
D02*
G37*
G36*
X216355Y46083D02*
X212905D01*
X211888Y45881D01*
X211026Y45305D01*
X210449Y44442D01*
X210247Y43425D01*
Y34275D01*
X210449Y33258D01*
X211026Y32396D01*
X211263Y32236D01*
Y26259D01*
X210932Y26037D01*
X210351Y25167D01*
X210146Y24140D01*
Y12540D01*
X210351Y11513D01*
X210932Y10642D01*
X211803Y10061D01*
X212830Y9856D01*
X216430D01*
X217457Y10061D01*
X218328Y10642D01*
X218909Y11513D01*
X219114Y12540D01*
Y14973D01*
X230368D01*
Y13018D01*
X261032D01*
Y25082D01*
X230368D01*
Y21707D01*
X219114D01*
Y24140D01*
X218909Y25167D01*
X218328Y26037D01*
X217997Y26259D01*
Y32236D01*
X218235Y32396D01*
X218811Y33258D01*
X219013Y34275D01*
Y43425D01*
X218811Y44442D01*
X218235Y45305D01*
X217372Y45881D01*
X216355Y46083D01*
D02*
G37*
G36*
X191149Y15382D02*
X187033D01*
Y11066D01*
X191149D01*
Y15382D01*
D02*
G37*
G36*
X145543Y14444D02*
X139466D01*
Y4501D01*
X140286Y4609D01*
X141996Y5318D01*
X143465Y6445D01*
X144592Y7914D01*
X145301Y9624D01*
X145543Y11460D01*
Y14444D01*
D02*
G37*
G36*
X59143D02*
X53066D01*
Y4501D01*
X53886Y4609D01*
X55596Y5318D01*
X57065Y6445D01*
X58192Y7914D01*
X58901Y9624D01*
X59143Y11460D01*
Y14444D01*
D02*
G37*
G36*
X137434D02*
X131357D01*
Y11460D01*
X131599Y9624D01*
X132308Y7914D01*
X133435Y6445D01*
X134904Y5318D01*
X136614Y4609D01*
X137434Y4501D01*
Y14444D01*
D02*
G37*
G36*
X51034D02*
X44957D01*
Y11460D01*
X45199Y9624D01*
X45908Y7914D01*
X47035Y6445D01*
X48504Y5318D01*
X50214Y4609D01*
X51034Y4501D01*
Y14444D01*
D02*
G37*
G36*
X222930Y7924D02*
X222146D01*
Y456D01*
X225614D01*
Y5240D01*
X225409Y6267D01*
X224828Y7138D01*
X223957Y7719D01*
X222930Y7924D01*
D02*
G37*
G36*
X220114D02*
X219330D01*
X218303Y7719D01*
X217432Y7138D01*
X216851Y6267D01*
X216646Y5240D01*
Y456D01*
X220114D01*
Y7924D01*
D02*
G37*
G36*
X225614Y-1576D02*
X222146D01*
Y-9043D01*
X222930D01*
X223957Y-8839D01*
X224828Y-8257D01*
X225409Y-7387D01*
X225614Y-6360D01*
Y-1576D01*
D02*
G37*
G36*
X220114D02*
X216646D01*
Y-6360D01*
X216851Y-7387D01*
X217432Y-8257D01*
X218303Y-8839D01*
X219330Y-9043D01*
X220114D01*
Y-1576D01*
D02*
G37*
G36*
X209930Y7924D02*
X206330D01*
X205303Y7719D01*
X204432Y7138D01*
X203851Y6267D01*
X203646Y5240D01*
Y-6360D01*
X203851Y-7387D01*
X204334Y-8110D01*
X203939Y-8505D01*
X203173Y-10354D01*
Y-12356D01*
X203939Y-14205D01*
X205355Y-15621D01*
X207204Y-16387D01*
X209206D01*
X211055Y-15621D01*
X212471Y-14205D01*
X213237Y-12356D01*
Y-10354D01*
X212471Y-8505D01*
X211986Y-8020D01*
X212409Y-7387D01*
X212614Y-6360D01*
Y5240D01*
X212409Y6267D01*
X211828Y7138D01*
X210957Y7719D01*
X209930Y7924D01*
D02*
G37*
G36*
X157734Y-13228D02*
X153618D01*
Y-17544D01*
X157734D01*
Y-13228D01*
D02*
G37*
G36*
X139466Y-13881D02*
Y-25324D01*
X145543D01*
Y-20840D01*
X145301Y-19004D01*
X144592Y-17294D01*
X143465Y-15825D01*
X141996Y-14698D01*
X140286Y-13989D01*
X139466Y-13881D01*
D02*
G37*
G36*
X51034D02*
X50214Y-13989D01*
X48504Y-14698D01*
X47035Y-15825D01*
X45908Y-17294D01*
X45199Y-19004D01*
X44957Y-20840D01*
Y-25324D01*
X51034D01*
Y-13881D01*
D02*
G37*
G36*
X53066D02*
Y-25324D01*
X59143D01*
Y-24275D01*
X61175Y-23871D01*
X61475Y-24597D01*
X63093Y-26215D01*
X65206Y-27090D01*
X66218D01*
Y-38398D01*
X63108D01*
Y-42164D01*
X67890D01*
Y-44196D01*
X63108D01*
Y-47006D01*
X61834D01*
Y-51021D01*
X66366D01*
Y-52038D01*
X67382D01*
Y-57070D01*
X70898D01*
Y-57070D01*
X72334D01*
Y-57070D01*
X81398D01*
Y-47962D01*
X81672D01*
Y-39872D01*
X84363D01*
Y-55094D01*
X84343Y-55194D01*
X84418Y-55571D01*
Y-58825D01*
X84669Y-60084D01*
X84863Y-60375D01*
X84482Y-62407D01*
X84482Y-62994D01*
Y-68570D01*
X84343Y-69266D01*
Y-69795D01*
X83376Y-70442D01*
X81145Y-72673D01*
X80110Y-73364D01*
X76668Y-76806D01*
X76354Y-77016D01*
X76140Y-77336D01*
X75068Y-78408D01*
X73660Y-79340D01*
X72252Y-78408D01*
X68452Y-74608D01*
X67384Y-73894D01*
X66124Y-73644D01*
X64865Y-73894D01*
X63797Y-74608D01*
X63722Y-74720D01*
X61275Y-75146D01*
X48893Y-62764D01*
X47973Y-62149D01*
X46888Y-61933D01*
X4615D01*
Y-45894D01*
X7560D01*
Y-31830D01*
X-4004D01*
Y-45894D01*
X-1059D01*
Y-64770D01*
Y-73486D01*
X-4004D01*
Y-87550D01*
X-4004Y-87550D01*
X-4376Y-88538D01*
X-4376D01*
X-4376Y-89428D01*
Y-100602D01*
X7688D01*
Y-89529D01*
X7688Y-88538D01*
X7688D01*
X7560Y-87550D01*
X7560D01*
Y-73486D01*
X4615D01*
Y-67607D01*
X45713D01*
X57263Y-79157D01*
X56837Y-81605D01*
X56726Y-81679D01*
X54428Y-81460D01*
X49889Y-76921D01*
X48297Y-75329D01*
X44668Y-78958D01*
X41039Y-82587D01*
X41832Y-83380D01*
X41488Y-85611D01*
X41356Y-85777D01*
X41049Y-85904D01*
X39634Y-87320D01*
X38867Y-89169D01*
Y-91171D01*
X39277Y-92160D01*
X38150Y-94192D01*
X30465D01*
X29379Y-94407D01*
X28459Y-95022D01*
X12018Y-111463D01*
X7688D01*
Y-103538D01*
X-4376D01*
Y-115602D01*
X2083D01*
X3031Y-117634D01*
X2273Y-118538D01*
X-4376D01*
Y-130602D01*
X7688D01*
Y-122549D01*
X8021Y-122217D01*
X16510D01*
X17595Y-122001D01*
X18516Y-121386D01*
X35465Y-104437D01*
X39473D01*
X43970Y-108934D01*
X44029Y-109536D01*
X36810Y-116756D01*
X41375Y-121321D01*
Y-121321D01*
X42584Y-122619D01*
X43651Y-123332D01*
X44971Y-123766D01*
X45406Y-125086D01*
X46119Y-126154D01*
X47187Y-126868D01*
X48691Y-127362D01*
X48941Y-128622D01*
X49655Y-129690D01*
X50722Y-130403D01*
X52226Y-130898D01*
X52477Y-132157D01*
X53190Y-133225D01*
X54258Y-133939D01*
X55518Y-134190D01*
X56012Y-135693D01*
X56726Y-136761D01*
X57794Y-137474D01*
X59297Y-137969D01*
X59548Y-139229D01*
X60261Y-140296D01*
X61329Y-141010D01*
X62833Y-141504D01*
X63083Y-142764D01*
X63797Y-143832D01*
X64865Y-144546D01*
X66124Y-144796D01*
X67384Y-144546D01*
X68452Y-143832D01*
X72252Y-140032D01*
X72387Y-139942D01*
X74932D01*
X75068Y-140032D01*
X76140Y-141104D01*
X76354Y-141424D01*
X76866Y-141936D01*
X70571Y-148231D01*
X68979Y-149823D01*
X72608Y-153452D01*
X71890Y-154171D01*
X72608Y-154889D01*
X68838Y-158659D01*
X70840Y-160662D01*
X73751Y-163572D01*
X77521Y-159802D01*
X78239Y-160521D01*
X78958Y-159802D01*
X82587Y-163431D01*
X84179Y-161839D01*
X91720Y-154298D01*
Y-154298D01*
X92560Y-152265D01*
X93622Y-151203D01*
X94388Y-149354D01*
Y-147352D01*
X93622Y-145503D01*
X92206Y-144087D01*
X90357Y-143321D01*
X88355D01*
X87105Y-141675D01*
X87059Y-140296D01*
X87772Y-139229D01*
X88207Y-137909D01*
X89527Y-137474D01*
X90594Y-136761D01*
X91308Y-135693D01*
X91559Y-134433D01*
X93062Y-133939D01*
X94130Y-133225D01*
X94204Y-133114D01*
X96652Y-132688D01*
X103250Y-139286D01*
X104170Y-139901D01*
X105255Y-140117D01*
X105728D01*
Y-143312D01*
X117138D01*
Y-146248D01*
X105728D01*
Y-158312D01*
X117792D01*
Y-157872D01*
X126702D01*
Y-148872D01*
Y-145106D01*
X121920D01*
Y-144090D01*
X120904D01*
Y-139308D01*
X117792D01*
Y-131248D01*
X105728D01*
Y-131248D01*
X103965Y-131978D01*
X100663Y-128677D01*
X101089Y-126229D01*
X101201Y-126154D01*
X101915Y-125086D01*
X102165Y-123827D01*
X103669Y-123332D01*
X104736Y-122619D01*
X105450Y-121551D01*
X105701Y-120291D01*
X107204Y-119797D01*
X108272Y-119083D01*
X108986Y-118015D01*
X109236Y-116756D01*
X108986Y-115496D01*
X108272Y-114428D01*
X104472Y-110628D01*
X103540Y-109220D01*
X104472Y-107812D01*
X108272Y-104012D01*
X108986Y-102944D01*
X109032Y-102713D01*
X109896Y-101848D01*
X110538D01*
X111623Y-101633D01*
X112544Y-101018D01*
X114242Y-99319D01*
X115566D01*
X117415Y-98553D01*
X118830Y-97137D01*
X119597Y-95288D01*
Y-93286D01*
X118830Y-91437D01*
X117415Y-90021D01*
X115566Y-89255D01*
X113564D01*
X111714Y-90021D01*
X110185Y-88764D01*
X109664Y-87677D01*
X110430Y-85827D01*
Y-83825D01*
X109664Y-81976D01*
X108249Y-80560D01*
X106399Y-79794D01*
X104398D01*
X103083Y-80339D01*
X102548Y-80560D01*
X100786Y-79700D01*
X99370Y-78284D01*
X98792Y-78044D01*
X98970Y-75937D01*
X100038Y-75223D01*
X100751Y-74156D01*
X101002Y-72896D01*
Y-70282D01*
X97710D01*
Y-68250D01*
X101002D01*
Y-65635D01*
X100751Y-64376D01*
X100171Y-63507D01*
X100038Y-63308D01*
X100038Y-61152D01*
X100171Y-60953D01*
X100751Y-60084D01*
X101002Y-58825D01*
Y-51564D01*
X100751Y-50304D01*
X100038Y-49236D01*
X99417Y-48822D01*
X99409Y-47240D01*
X99432Y-47040D01*
X99553Y-46655D01*
X100498Y-46023D01*
X101871Y-44650D01*
X103748Y-45428D01*
Y-47962D01*
X103892D01*
Y-56993D01*
X112956D01*
Y-56993D01*
X114392D01*
Y-56993D01*
X117908D01*
Y-51961D01*
X118924D01*
Y-50945D01*
X123456D01*
Y-46929D01*
X122312D01*
Y-44196D01*
X117530D01*
Y-42164D01*
X122312D01*
Y-39872D01*
X124282D01*
Y-27090D01*
X125294D01*
X127407Y-26215D01*
X129025Y-24597D01*
X129325Y-23871D01*
X131357Y-24275D01*
Y-25324D01*
X137434D01*
Y-13881D01*
X136614Y-13989D01*
X134904Y-14698D01*
X133435Y-15825D01*
X132308Y-17294D01*
X131602Y-18996D01*
X131575Y-19007D01*
X129515Y-19267D01*
X129025Y-18083D01*
X127407Y-16465D01*
X125294Y-15590D01*
X123006D01*
X120893Y-16465D01*
X120508Y-16850D01*
X118603Y-17458D01*
X117900Y-16803D01*
X117150Y-16054D01*
X115301Y-15288D01*
X113299D01*
X111450Y-16054D01*
X110034Y-17470D01*
X109268Y-19319D01*
Y-21321D01*
X109664Y-22276D01*
X108517Y-24308D01*
X100787D01*
X100662Y-23684D01*
X99933Y-22592D01*
X97998Y-20657D01*
X96906Y-19928D01*
X95618Y-19671D01*
X89882D01*
X88594Y-19928D01*
X87502Y-20657D01*
X85567Y-22592D01*
X84838Y-23684D01*
X84713Y-24308D01*
X81983D01*
X80836Y-22276D01*
X81232Y-21321D01*
Y-19319D01*
X80466Y-17470D01*
X79050Y-16054D01*
X77201Y-15288D01*
X75199D01*
X73350Y-16054D01*
X72600Y-16803D01*
X71897Y-17458D01*
X69991Y-16850D01*
X69607Y-16465D01*
X67494Y-15590D01*
X65206D01*
X63093Y-16465D01*
X61475Y-18083D01*
X60985Y-19267D01*
X58925Y-19007D01*
X58898Y-18996D01*
X58192Y-17294D01*
X57065Y-15825D01*
X55596Y-14698D01*
X53886Y-13989D01*
X53066Y-13881D01*
D02*
G37*
G36*
X2128Y27032D02*
X-2128D01*
X-6330Y26366D01*
X-10377Y25052D01*
X-14168Y23120D01*
X-17610Y20619D01*
X-20619Y17610D01*
X-23120Y14168D01*
X-25052Y10377D01*
X-26366Y6330D01*
X-27032Y2128D01*
Y-2128D01*
X-26366Y-6330D01*
X-25052Y-10377D01*
X-23120Y-14168D01*
X-20619Y-17610D01*
X-17610Y-20619D01*
X-14168Y-23120D01*
X-10377Y-25052D01*
X-6330Y-26366D01*
X-2128Y-27032D01*
X2128D01*
X6330Y-26366D01*
X10377Y-25052D01*
X14168Y-23120D01*
X17610Y-20619D01*
X20619Y-17610D01*
X23120Y-14168D01*
X25052Y-10377D01*
X26366Y-6330D01*
X27032Y-2128D01*
Y2128D01*
X26366Y6330D01*
X25052Y10377D01*
X23120Y14168D01*
X20619Y17610D01*
X17610Y20619D01*
X14168Y23120D01*
X10377Y25052D01*
X6330Y26366D01*
X2128Y27032D01*
D02*
G37*
G36*
X-13776Y-31830D02*
X-18542D01*
Y-37846D01*
X-13776D01*
Y-31830D01*
D02*
G37*
G36*
X-20574D02*
X-25340D01*
Y-37846D01*
X-20574D01*
Y-31830D01*
D02*
G37*
G36*
X145543Y-27356D02*
X139466D01*
Y-38799D01*
X140286Y-38691D01*
X141996Y-37982D01*
X143465Y-36855D01*
X144592Y-35386D01*
X145301Y-33676D01*
X145543Y-31840D01*
Y-27356D01*
D02*
G37*
G36*
X59143D02*
X53066D01*
Y-38799D01*
X53886Y-38691D01*
X55596Y-37982D01*
X57065Y-36855D01*
X58192Y-35386D01*
X58901Y-33676D01*
X59143Y-31840D01*
Y-27356D01*
D02*
G37*
G36*
X137434D02*
X131357D01*
Y-31840D01*
X131599Y-33676D01*
X132308Y-35386D01*
X133435Y-36855D01*
X134904Y-37982D01*
X136614Y-38691D01*
X137434Y-38799D01*
Y-27356D01*
D02*
G37*
G36*
X51034D02*
X44957D01*
Y-31840D01*
X45199Y-33676D01*
X45908Y-35386D01*
X47035Y-36855D01*
X48504Y-37982D01*
X50214Y-38691D01*
X51034Y-38799D01*
Y-27356D01*
D02*
G37*
G36*
X-13776Y-39878D02*
X-18542D01*
Y-45894D01*
X-13776D01*
Y-39878D01*
D02*
G37*
G36*
X-20574D02*
X-25340D01*
Y-45894D01*
X-20574D01*
Y-39878D01*
D02*
G37*
G36*
X123456Y-52977D02*
X119940D01*
Y-56993D01*
X123456D01*
Y-52977D01*
D02*
G37*
G36*
X65350Y-53053D02*
X61834D01*
Y-57070D01*
X65350D01*
Y-53053D01*
D02*
G37*
G36*
X216355Y-49397D02*
X212905D01*
X211888Y-49599D01*
X211026Y-50175D01*
X210449Y-51038D01*
X210247Y-52055D01*
Y-61205D01*
X210449Y-62222D01*
X211026Y-63085D01*
X211888Y-63661D01*
X212905Y-63863D01*
X216355D01*
X217372Y-63661D01*
X218235Y-63085D01*
X218261Y-63045D01*
X230368D01*
Y-63182D01*
X261032D01*
Y-51118D01*
X230368D01*
Y-51255D01*
X218854D01*
X218811Y-51038D01*
X218235Y-50175D01*
X217372Y-49599D01*
X216355Y-49397D01*
D02*
G37*
G36*
X43808Y-70840D02*
X40898Y-73751D01*
X43949Y-76803D01*
X46860Y-73892D01*
X43808Y-70840D01*
D02*
G37*
G36*
X-13776Y-73486D02*
X-18542D01*
Y-79502D01*
X-13776D01*
Y-73486D01*
D02*
G37*
G36*
X-20574D02*
X-25340D01*
Y-79502D01*
X-20574D01*
Y-73486D01*
D02*
G37*
G36*
X39461Y-75188D02*
X36550Y-78098D01*
X39602Y-81150D01*
X42513Y-78239D01*
X39461Y-75188D01*
D02*
G37*
G36*
X-13776Y-81534D02*
X-18542D01*
Y-87550D01*
X-13776D01*
Y-81534D01*
D02*
G37*
G36*
X-20574D02*
X-25340D01*
Y-87550D01*
X-20574D01*
Y-81534D01*
D02*
G37*
G36*
X-7312Y-96038D02*
X-12328D01*
Y-101054D01*
X-7312D01*
Y-96038D01*
D02*
G37*
G36*
X-14360D02*
X-19376D01*
Y-101054D01*
X-14360D01*
Y-96038D01*
D02*
G37*
G36*
X216355Y-73297D02*
X212905D01*
X211888Y-73499D01*
X211026Y-74075D01*
X210449Y-74938D01*
X210247Y-75955D01*
Y-85105D01*
X210449Y-86122D01*
X211026Y-86985D01*
X211263Y-87143D01*
Y-92561D01*
X210932Y-92782D01*
X210351Y-93653D01*
X210146Y-94680D01*
Y-106280D01*
X210351Y-107307D01*
X210932Y-108178D01*
X211803Y-108759D01*
X212830Y-108964D01*
X216430D01*
X217457Y-108759D01*
X218328Y-108178D01*
X218909Y-107307D01*
X219114Y-106280D01*
Y-103847D01*
X230368D01*
Y-106362D01*
X261032D01*
Y-94298D01*
X230368D01*
Y-97113D01*
X219114D01*
Y-94680D01*
X218909Y-93653D01*
X218328Y-92782D01*
X217997Y-92561D01*
Y-87143D01*
X218235Y-86985D01*
X218811Y-86122D01*
X219013Y-85105D01*
Y-75955D01*
X218811Y-74938D01*
X218235Y-74075D01*
X217372Y-73499D01*
X216355Y-73297D01*
D02*
G37*
G36*
X-7312Y-103086D02*
X-12328D01*
Y-108102D01*
X-7312D01*
Y-103086D01*
D02*
G37*
G36*
X-14360D02*
X-19376D01*
Y-108102D01*
X-14360D01*
Y-103086D01*
D02*
G37*
G36*
X222930Y-110897D02*
X222146D01*
Y-118364D01*
X225614D01*
Y-113580D01*
X225409Y-112553D01*
X224828Y-111683D01*
X223957Y-111101D01*
X222930Y-110897D01*
D02*
G37*
G36*
X220114D02*
X219330D01*
X218303Y-111101D01*
X217432Y-111683D01*
X216851Y-112553D01*
X216646Y-113580D01*
Y-118364D01*
X220114D01*
Y-110897D01*
D02*
G37*
G36*
X225614Y-120396D02*
X222146D01*
Y-127864D01*
X222930D01*
X223957Y-127659D01*
X224828Y-127078D01*
X225409Y-126207D01*
X225614Y-125180D01*
Y-120396D01*
D02*
G37*
G36*
X220114D02*
X216646D01*
Y-125180D01*
X216851Y-126207D01*
X217432Y-127078D01*
X218303Y-127659D01*
X219330Y-127864D01*
X220114D01*
Y-120396D01*
D02*
G37*
G36*
X-7312Y-111038D02*
X-19376D01*
Y-123102D01*
X-19376D01*
X-18729Y-124070D01*
X-19002Y-124729D01*
Y-126731D01*
X-18236Y-128580D01*
X-16820Y-129996D01*
X-14971Y-130762D01*
X-12969D01*
X-11120Y-129996D01*
X-9704Y-128580D01*
X-8938Y-126731D01*
Y-124729D01*
X-7851Y-123102D01*
X-7312D01*
Y-111038D01*
D02*
G37*
G36*
X209930Y-110897D02*
X206330D01*
X205303Y-111101D01*
X204432Y-111683D01*
X203851Y-112553D01*
X203646Y-113580D01*
Y-125180D01*
X203851Y-126207D01*
X204109Y-126594D01*
X204014Y-126690D01*
X203248Y-128539D01*
Y-130541D01*
X204014Y-132390D01*
X205430Y-133806D01*
X207279Y-134572D01*
X209281D01*
X211130Y-133806D01*
X212546Y-132390D01*
X213312Y-130541D01*
Y-128539D01*
X212546Y-126690D01*
X212271Y-126414D01*
X212409Y-126207D01*
X212614Y-125180D01*
Y-113580D01*
X212409Y-112553D01*
X211828Y-111683D01*
X210957Y-111101D01*
X209930Y-110897D01*
D02*
G37*
G36*
X154642Y-139308D02*
X150876D01*
Y-143074D01*
X154642D01*
Y-139308D01*
D02*
G37*
G36*
X126702D02*
X122936D01*
Y-143074D01*
X126702D01*
Y-139308D01*
D02*
G37*
G36*
X185122D02*
X181356D01*
Y-143074D01*
X185122D01*
Y-139308D01*
D02*
G37*
G36*
X67542Y-151260D02*
X64490Y-154312D01*
X67401Y-157222D01*
X70453Y-154171D01*
X67542Y-151260D01*
D02*
G37*
G36*
X140701Y-124508D02*
X138699D01*
X136850Y-125274D01*
X135434Y-126690D01*
X134668Y-128539D01*
Y-130541D01*
X134195Y-131248D01*
X133668D01*
Y-143312D01*
X145078D01*
Y-146248D01*
X133668D01*
Y-158312D01*
X145732D01*
Y-157872D01*
X154642D01*
Y-148872D01*
Y-145106D01*
X149860D01*
Y-144090D01*
X148844D01*
Y-139308D01*
X145732D01*
Y-131248D01*
X145204D01*
X144732Y-130541D01*
Y-128539D01*
X143966Y-126690D01*
X142550Y-125274D01*
X140701Y-124508D01*
D02*
G37*
G36*
X171181D02*
X169179D01*
X167330Y-125274D01*
X165914Y-126690D01*
X165148Y-128539D01*
Y-130541D01*
X164595Y-131368D01*
X164148D01*
Y-143432D01*
X175558D01*
Y-146368D01*
X164148D01*
Y-158432D01*
X176212D01*
Y-157872D01*
X185122D01*
Y-148872D01*
Y-145106D01*
X180340D01*
Y-144090D01*
X179324D01*
Y-139308D01*
X176212D01*
Y-131368D01*
X175765D01*
X175212Y-130541D01*
Y-128539D01*
X174446Y-126690D01*
X173030Y-125274D01*
X171181Y-124508D01*
D02*
G37*
G36*
X78239Y-161957D02*
X75188Y-165009D01*
X78098Y-167920D01*
X81150Y-164868D01*
X78239Y-161957D01*
D02*
G37*
G36*
X216355Y-168777D02*
X212905D01*
X211888Y-168979D01*
X211026Y-169555D01*
X210449Y-170418D01*
X210247Y-171435D01*
Y-180585D01*
X210449Y-181602D01*
X211026Y-182465D01*
X211888Y-183041D01*
X212905Y-183243D01*
X216355D01*
X217372Y-183041D01*
X218235Y-182465D01*
X218261Y-182425D01*
X230368D01*
Y-182562D01*
X261032D01*
Y-170498D01*
X230368D01*
Y-170635D01*
X218854D01*
X218811Y-170418D01*
X218235Y-169555D01*
X217372Y-168979D01*
X216355Y-168777D01*
D02*
G37*
G36*
X2128Y-135528D02*
X-2128D01*
X-6330Y-136194D01*
X-10377Y-137508D01*
X-14168Y-139440D01*
X-17610Y-141941D01*
X-20619Y-144950D01*
X-23120Y-148392D01*
X-25052Y-152183D01*
X-26366Y-156230D01*
X-27032Y-160432D01*
Y-164688D01*
X-26366Y-168890D01*
X-25052Y-172937D01*
X-23120Y-176728D01*
X-20619Y-180170D01*
X-17610Y-183179D01*
X-14168Y-185680D01*
X-10377Y-187612D01*
X-6330Y-188926D01*
X-2128Y-189592D01*
X2128D01*
X6330Y-188926D01*
X10377Y-187612D01*
X14168Y-185680D01*
X17610Y-183179D01*
X20619Y-180170D01*
X23120Y-176728D01*
X25052Y-172937D01*
X26366Y-168890D01*
X27032Y-164688D01*
Y-160432D01*
X26366Y-156230D01*
X25052Y-152183D01*
X23120Y-148392D01*
X20619Y-144950D01*
X17610Y-141941D01*
X14168Y-139440D01*
X10377Y-137508D01*
X6330Y-136194D01*
X2128Y-135528D01*
D02*
G37*
G36*
X216355Y-192677D02*
X212905D01*
X211888Y-192879D01*
X211026Y-193455D01*
X210449Y-194318D01*
X210247Y-195335D01*
Y-204485D01*
X210449Y-205502D01*
X211026Y-206364D01*
X211263Y-206523D01*
Y-212501D01*
X210932Y-212722D01*
X210351Y-213593D01*
X210146Y-214620D01*
Y-226220D01*
X210351Y-227247D01*
X210932Y-228118D01*
X211803Y-228699D01*
X212830Y-228904D01*
X216430D01*
X217457Y-228699D01*
X218328Y-228118D01*
X218909Y-227247D01*
X219114Y-226220D01*
Y-223787D01*
X230368D01*
Y-225742D01*
X261032D01*
Y-213678D01*
X230368D01*
Y-217053D01*
X219114D01*
Y-214620D01*
X218909Y-213593D01*
X218328Y-212722D01*
X217997Y-212501D01*
Y-206523D01*
X218235Y-206364D01*
X218811Y-205502D01*
X219013Y-204485D01*
Y-195335D01*
X218811Y-194318D01*
X218235Y-193455D01*
X217372Y-192879D01*
X216355Y-192677D01*
D02*
G37*
G36*
X222930Y-230836D02*
X222146D01*
Y-238304D01*
X225614D01*
Y-233520D01*
X225409Y-232493D01*
X224828Y-231622D01*
X223957Y-231041D01*
X222930Y-230836D01*
D02*
G37*
G36*
X220114D02*
X219330D01*
X218303Y-231041D01*
X217432Y-231622D01*
X216851Y-232493D01*
X216646Y-233520D01*
Y-238304D01*
X220114D01*
Y-230836D01*
D02*
G37*
G36*
X225614Y-240336D02*
X222146D01*
Y-247803D01*
X222930D01*
X223957Y-247599D01*
X224828Y-247017D01*
X225409Y-246147D01*
X225614Y-245120D01*
Y-240336D01*
D02*
G37*
G36*
X220114D02*
X216646D01*
Y-245120D01*
X216851Y-246147D01*
X217432Y-247017D01*
X218303Y-247599D01*
X219330Y-247803D01*
X220114D01*
Y-240336D01*
D02*
G37*
G36*
X209930Y-230836D02*
X206330D01*
X205303Y-231041D01*
X204432Y-231622D01*
X203851Y-232493D01*
X203646Y-233520D01*
Y-245120D01*
X203851Y-246147D01*
X204334Y-246870D01*
X203939Y-247265D01*
X203173Y-249114D01*
Y-251116D01*
X203939Y-252965D01*
X205355Y-254381D01*
X207204Y-255147D01*
X209206D01*
X211055Y-254381D01*
X212471Y-252965D01*
X213237Y-251116D01*
Y-249114D01*
X212471Y-247265D01*
X211986Y-246780D01*
X212409Y-246147D01*
X212614Y-245120D01*
Y-233520D01*
X212409Y-232493D01*
X211828Y-231622D01*
X210957Y-231041D01*
X209930Y-230836D01*
D02*
G37*
G36*
X261032Y-289878D02*
X230368D01*
Y-290015D01*
X228600D01*
X226344Y-290464D01*
X224431Y-291741D01*
X223153Y-293654D01*
X222705Y-295910D01*
X223153Y-298166D01*
X224431Y-300079D01*
X226344Y-301357D01*
X228600Y-301805D01*
X230368D01*
Y-301942D01*
X261032D01*
Y-289878D01*
D02*
G37*
G36*
X478377Y230232D02*
X474123D01*
X469920Y229566D01*
X465873Y228251D01*
X462082Y226320D01*
X458640Y223819D01*
X455631Y220810D01*
X453130Y217368D01*
X451199Y213577D01*
X449884Y209530D01*
X449218Y205327D01*
Y201073D01*
X449884Y196870D01*
X451199Y192823D01*
X453130Y189032D01*
X455631Y185590D01*
X458640Y182581D01*
X462082Y180080D01*
X465873Y178148D01*
X469920Y176834D01*
X474123Y176168D01*
X478377D01*
X482580Y176834D01*
X486627Y178148D01*
X490418Y180080D01*
X493860Y182581D01*
X496869Y185590D01*
X499370Y189032D01*
X501301Y192823D01*
X502616Y196870D01*
X503282Y201073D01*
Y205327D01*
X502616Y209530D01*
X501301Y213577D01*
X499370Y217368D01*
X496869Y220810D01*
X493860Y223819D01*
X490418Y226320D01*
X486627Y228251D01*
X482580Y229566D01*
X478377Y230232D01*
D02*
G37*
G36*
X370551Y145442D02*
X367449D01*
X364452Y144639D01*
X361766Y143088D01*
X359572Y140894D01*
X358517Y139067D01*
X328432D01*
Y144462D01*
X297768D01*
Y132398D01*
X315505D01*
X315830Y132333D01*
X357218D01*
Y132109D01*
X358021Y129112D01*
X359572Y126426D01*
X361766Y124232D01*
X364452Y122681D01*
X367449Y121878D01*
X370551D01*
X373548Y122681D01*
X376234Y124232D01*
X378428Y126426D01*
X379979Y129112D01*
X380782Y132109D01*
Y135211D01*
X379979Y138208D01*
X378428Y140894D01*
X376234Y143088D01*
X373548Y144639D01*
X370551Y145442D01*
D02*
G37*
G36*
X452551D02*
X449449D01*
X446452Y144639D01*
X443766Y143088D01*
X441572Y140894D01*
X440021Y138208D01*
X439218Y135211D01*
Y132109D01*
X440021Y129112D01*
X441572Y126426D01*
X443766Y124232D01*
X446452Y122681D01*
X449449Y121878D01*
X452551D01*
X455548Y122681D01*
X458234Y124232D01*
X460428Y126426D01*
X461979Y129112D01*
X462782Y132109D01*
Y135211D01*
X461979Y138208D01*
X460428Y140894D01*
X458234Y143088D01*
X455548Y144639D01*
X452551Y145442D01*
D02*
G37*
G36*
X370551Y95442D02*
X367449D01*
X364452Y94639D01*
X361766Y93088D01*
X359572Y90894D01*
X358055Y88267D01*
X328432D01*
Y93662D01*
X297768D01*
Y81598D01*
X315505D01*
X315830Y81533D01*
X357372D01*
X358021Y79112D01*
X359572Y76426D01*
X361766Y74232D01*
X364452Y72681D01*
X367449Y71878D01*
X370551D01*
X373548Y72681D01*
X376234Y74232D01*
X378428Y76426D01*
X379979Y79112D01*
X380782Y82109D01*
Y85211D01*
X379979Y88208D01*
X378428Y90894D01*
X376234Y93088D01*
X373548Y94639D01*
X370551Y95442D01*
D02*
G37*
G36*
X452551D02*
X449449D01*
X446452Y94639D01*
X443766Y93088D01*
X441572Y90894D01*
X440021Y88208D01*
X439218Y85211D01*
Y82109D01*
X440021Y79112D01*
X441572Y76426D01*
X443766Y74232D01*
X446452Y72681D01*
X449449Y71878D01*
X452551D01*
X455548Y72681D01*
X458234Y74232D01*
X460428Y76426D01*
X461979Y79112D01*
X462782Y82109D01*
Y85211D01*
X461979Y88208D01*
X460428Y90894D01*
X458234Y93088D01*
X455548Y94639D01*
X452551Y95442D01*
D02*
G37*
G36*
X370551Y45442D02*
X367449D01*
X364452Y44639D01*
X361766Y43088D01*
X359572Y40894D01*
X358021Y38208D01*
X357218Y35211D01*
Y32109D01*
X358021Y29112D01*
X358632Y28054D01*
X352995Y22417D01*
X328432D01*
Y25082D01*
X297768D01*
Y13018D01*
X328432D01*
Y15683D01*
X354390D01*
X355678Y15940D01*
X356771Y16669D01*
X363394Y23292D01*
X364452Y22681D01*
X367449Y21878D01*
X370551D01*
X373548Y22681D01*
X376234Y24232D01*
X378428Y26426D01*
X379979Y29112D01*
X380782Y32109D01*
Y35211D01*
X379979Y38208D01*
X378428Y40894D01*
X376234Y43088D01*
X373548Y44639D01*
X370551Y45442D01*
D02*
G37*
G36*
X452551D02*
X449449D01*
X446452Y44639D01*
X443766Y43088D01*
X441572Y40894D01*
X440021Y38208D01*
X439218Y35211D01*
Y32109D01*
X440021Y29112D01*
X441572Y26426D01*
X443766Y24232D01*
X446452Y22681D01*
X449449Y21878D01*
X452551D01*
X455548Y22681D01*
X458234Y24232D01*
X460428Y26426D01*
X461979Y29112D01*
X462782Y32109D01*
Y35211D01*
X461979Y38208D01*
X460428Y40894D01*
X458234Y43088D01*
X455548Y44639D01*
X452551Y45442D01*
D02*
G37*
G36*
Y-4558D02*
X449449D01*
X446452Y-5361D01*
X443766Y-6912D01*
X441572Y-9106D01*
X440021Y-11792D01*
X439218Y-14789D01*
Y-17891D01*
X440021Y-20888D01*
X441572Y-23574D01*
X443766Y-25768D01*
X446452Y-27319D01*
X449449Y-28122D01*
X452551D01*
X455548Y-27319D01*
X458234Y-25768D01*
X460428Y-23574D01*
X461979Y-20888D01*
X462782Y-17891D01*
Y-14789D01*
X461979Y-11792D01*
X460428Y-9106D01*
X458234Y-6912D01*
X455548Y-5361D01*
X452551Y-4558D01*
D02*
G37*
G36*
X370551D02*
X367449D01*
X364452Y-5361D01*
X361766Y-6912D01*
X359572Y-9106D01*
X358021Y-11792D01*
X357218Y-14789D01*
Y-17891D01*
X358021Y-20888D01*
X358632Y-21946D01*
X352196Y-28383D01*
X328432D01*
Y-25718D01*
X297768D01*
Y-37782D01*
X328432D01*
Y-35117D01*
X353590D01*
X354878Y-34860D01*
X355971Y-34131D01*
X363394Y-26708D01*
X364452Y-27319D01*
X367449Y-28122D01*
X370551D01*
X373548Y-27319D01*
X376234Y-25768D01*
X378428Y-23574D01*
X379979Y-20888D01*
X380782Y-17891D01*
Y-14789D01*
X379979Y-11792D01*
X378428Y-9106D01*
X376234Y-6912D01*
X373548Y-5361D01*
X370551Y-4558D01*
D02*
G37*
G36*
Y-54558D02*
X370016D01*
Y-65324D01*
X380782D01*
Y-64789D01*
X379979Y-61792D01*
X378428Y-59106D01*
X376234Y-56912D01*
X373548Y-55361D01*
X370551Y-54558D01*
D02*
G37*
G36*
X367984D02*
X367449D01*
X364452Y-55361D01*
X361766Y-56912D01*
X359572Y-59106D01*
X358021Y-61792D01*
X357218Y-64789D01*
Y-65324D01*
X367984D01*
Y-54558D01*
D02*
G37*
G36*
X452551D02*
X449449D01*
X446452Y-55361D01*
X443766Y-56912D01*
X441572Y-59106D01*
X440021Y-61792D01*
X439218Y-64789D01*
Y-67891D01*
X440021Y-70888D01*
X441572Y-73574D01*
X443766Y-75768D01*
X446452Y-77319D01*
X449449Y-78122D01*
X452551D01*
X455548Y-77319D01*
X458234Y-75768D01*
X460428Y-73574D01*
X461979Y-70888D01*
X462782Y-67891D01*
Y-64789D01*
X461979Y-61792D01*
X460428Y-59106D01*
X458234Y-56912D01*
X455548Y-55361D01*
X452551Y-54558D01*
D02*
G37*
G36*
X380782Y-67356D02*
X370016D01*
Y-78122D01*
X370551D01*
X373548Y-77319D01*
X376234Y-75768D01*
X378428Y-73574D01*
X379979Y-70888D01*
X380782Y-67891D01*
Y-67356D01*
D02*
G37*
G36*
X367984D02*
X357218D01*
Y-67891D01*
X358021Y-70888D01*
X359572Y-73574D01*
X361766Y-75768D01*
X364452Y-77319D01*
X367449Y-78122D01*
X367984D01*
Y-67356D01*
D02*
G37*
G36*
X452551Y-104558D02*
X449449D01*
X446452Y-105361D01*
X443766Y-106912D01*
X441572Y-109106D01*
X440021Y-111792D01*
X439218Y-114789D01*
Y-117891D01*
X440021Y-120888D01*
X441572Y-123574D01*
X443766Y-125768D01*
X446452Y-127319D01*
X449449Y-128122D01*
X452551D01*
X455548Y-127319D01*
X458234Y-125768D01*
X460428Y-123574D01*
X461979Y-120888D01*
X462782Y-117891D01*
Y-114789D01*
X461979Y-111792D01*
X460428Y-109106D01*
X458234Y-106912D01*
X455548Y-105361D01*
X452551Y-104558D01*
D02*
G37*
G36*
X328432Y-94298D02*
X297768D01*
Y-106362D01*
X328432D01*
Y-103697D01*
X351595D01*
X358632Y-110733D01*
X358021Y-111792D01*
X357218Y-114789D01*
Y-117891D01*
X358021Y-120888D01*
X359572Y-123574D01*
X361766Y-125768D01*
X364452Y-127319D01*
X367449Y-128122D01*
X370551D01*
X373548Y-127319D01*
X376234Y-125768D01*
X378428Y-123574D01*
X379979Y-120888D01*
X380782Y-117891D01*
Y-114789D01*
X379979Y-111792D01*
X378428Y-109106D01*
X376234Y-106912D01*
X373548Y-105361D01*
X370551Y-104558D01*
X367449D01*
X364452Y-105361D01*
X363394Y-105972D01*
X355371Y-97949D01*
X354278Y-97220D01*
X352990Y-96963D01*
X328432D01*
Y-94298D01*
D02*
G37*
G36*
X452551Y-154558D02*
X449449D01*
X446452Y-155361D01*
X443766Y-156912D01*
X441572Y-159106D01*
X440021Y-161792D01*
X439218Y-164789D01*
Y-167891D01*
X440021Y-170888D01*
X441572Y-173574D01*
X443766Y-175768D01*
X446452Y-177319D01*
X449449Y-178122D01*
X452551D01*
X455548Y-177319D01*
X458234Y-175768D01*
X460428Y-173574D01*
X461979Y-170888D01*
X462782Y-167891D01*
Y-164789D01*
X461979Y-161792D01*
X460428Y-159106D01*
X458234Y-156912D01*
X455548Y-155361D01*
X452551Y-154558D01*
D02*
G37*
G36*
X328432Y-145098D02*
X297768D01*
Y-157162D01*
X328432D01*
Y-154497D01*
X352396D01*
X358632Y-160734D01*
X358021Y-161792D01*
X357218Y-164789D01*
Y-167891D01*
X358021Y-170888D01*
X359572Y-173574D01*
X361766Y-175768D01*
X364452Y-177319D01*
X367449Y-178122D01*
X370551D01*
X373548Y-177319D01*
X376234Y-175768D01*
X378428Y-173574D01*
X379979Y-170888D01*
X380782Y-167891D01*
Y-164789D01*
X379979Y-161792D01*
X378428Y-159106D01*
X376234Y-156912D01*
X373548Y-155361D01*
X370551Y-154558D01*
X367449D01*
X364452Y-155361D01*
X363394Y-155972D01*
X356171Y-148749D01*
X355078Y-148020D01*
X353790Y-147763D01*
X328432D01*
Y-145098D01*
D02*
G37*
G36*
X452551Y-204558D02*
X449449D01*
X446452Y-205361D01*
X443766Y-206912D01*
X441572Y-209106D01*
X440021Y-211792D01*
X439218Y-214789D01*
Y-217891D01*
X440021Y-220888D01*
X441572Y-223574D01*
X443766Y-225768D01*
X446452Y-227319D01*
X449449Y-228122D01*
X452551D01*
X455548Y-227319D01*
X458234Y-225768D01*
X460428Y-223574D01*
X461979Y-220888D01*
X462782Y-217891D01*
Y-214789D01*
X461979Y-211792D01*
X460428Y-209106D01*
X458234Y-206912D01*
X455548Y-205361D01*
X452551Y-204558D01*
D02*
G37*
G36*
X370551D02*
X367449D01*
X364452Y-205361D01*
X361766Y-206912D01*
X359572Y-209106D01*
X358021Y-211792D01*
X357533Y-213613D01*
X315830D01*
X315505Y-213678D01*
X297768D01*
Y-225742D01*
X328432D01*
Y-220347D01*
X357876D01*
X358021Y-220888D01*
X359572Y-223574D01*
X361766Y-225768D01*
X364452Y-227319D01*
X367449Y-228122D01*
X370551D01*
X373548Y-227319D01*
X376234Y-225768D01*
X378428Y-223574D01*
X379979Y-220888D01*
X380782Y-217891D01*
Y-214789D01*
X379979Y-211792D01*
X378428Y-209106D01*
X376234Y-206912D01*
X373548Y-205361D01*
X370551Y-204558D01*
D02*
G37*
G36*
X452551Y-254558D02*
X449449D01*
X446452Y-255361D01*
X443766Y-256912D01*
X441572Y-259106D01*
X440021Y-261792D01*
X439218Y-264789D01*
Y-267891D01*
X440021Y-270888D01*
X441572Y-273574D01*
X443766Y-275768D01*
X446452Y-277319D01*
X449449Y-278122D01*
X452551D01*
X455548Y-277319D01*
X458234Y-275768D01*
X460428Y-273574D01*
X461979Y-270888D01*
X462782Y-267891D01*
Y-264789D01*
X461979Y-261792D01*
X460428Y-259106D01*
X458234Y-256912D01*
X455548Y-255361D01*
X452551Y-254558D01*
D02*
G37*
G36*
X370551D02*
X367449D01*
X364452Y-255361D01*
X361766Y-256912D01*
X359572Y-259106D01*
X358021Y-261792D01*
X357319Y-264413D01*
X315830D01*
X315505Y-264478D01*
X297768D01*
Y-276542D01*
X328432D01*
Y-271147D01*
X358171D01*
X359572Y-273574D01*
X361766Y-275768D01*
X364452Y-277319D01*
X367449Y-278122D01*
X370551D01*
X373548Y-277319D01*
X376234Y-275768D01*
X378428Y-273574D01*
X379979Y-270888D01*
X380782Y-267891D01*
Y-264789D01*
X379979Y-261792D01*
X378428Y-259106D01*
X376234Y-256912D01*
X373548Y-255361D01*
X370551Y-254558D01*
D02*
G37*
G36*
X478377Y-315868D02*
X474123D01*
X469920Y-316534D01*
X465873Y-317848D01*
X462082Y-319780D01*
X458640Y-322281D01*
X455631Y-325290D01*
X453130Y-328732D01*
X451199Y-332523D01*
X449884Y-336570D01*
X449218Y-340773D01*
Y-345028D01*
X449884Y-349230D01*
X451199Y-353277D01*
X453130Y-357068D01*
X455631Y-360510D01*
X458640Y-363519D01*
X462082Y-366020D01*
X465873Y-367952D01*
X469920Y-369266D01*
X474123Y-369932D01*
X478377D01*
X482580Y-369266D01*
X486627Y-367952D01*
X490418Y-366020D01*
X493860Y-363519D01*
X496869Y-360510D01*
X499370Y-357068D01*
X501301Y-353277D01*
X502616Y-349230D01*
X503282Y-345028D01*
Y-340773D01*
X502616Y-336570D01*
X501301Y-332523D01*
X499370Y-328732D01*
X496869Y-325290D01*
X493860Y-322281D01*
X490418Y-319780D01*
X486627Y-317848D01*
X482580Y-316534D01*
X478377Y-315868D01*
D02*
G37*
%LPD*%
D11*
X214630Y62750D02*
Y75680D01*
D14*
X367760Y84900D02*
X369000Y83660D01*
X315830Y84900D02*
X367760D01*
X313100Y87630D02*
X315830Y84900D01*
X368360Y-216980D02*
X369000Y-216340D01*
X315830Y-216980D02*
X368360D01*
X313100Y-219710D02*
X315830Y-216980D01*
X366960Y135700D02*
X369000Y133660D01*
X315830Y135700D02*
X366960D01*
X313100Y138430D02*
X315830Y135700D01*
X354390Y19050D02*
X369000Y33660D01*
X313100Y19050D02*
X354390D01*
X353790Y-151130D02*
X369000Y-166340D01*
X313100Y-151130D02*
X353790D01*
X352990Y-100330D02*
X369000Y-116340D01*
X313100Y-100330D02*
X352990D01*
X367560Y-267780D02*
X369000Y-266340D01*
X315830Y-267780D02*
X367560D01*
X313100Y-270510D02*
X315830Y-267780D01*
X353590Y-31750D02*
X369000Y-16340D01*
X313100Y-31750D02*
X353590D01*
X78735Y-139044D02*
X87382Y-147691D01*
X88694D01*
X89356Y-148353D01*
X84321Y-154439D02*
Y-153914D01*
X89356Y-148879D01*
Y-148353D01*
X78112Y-147948D02*
X82550Y-143510D01*
X176555Y970D02*
X185538D01*
X166850D02*
X176555D01*
Y10135D01*
Y25D02*
Y970D01*
X214630Y99580D02*
Y137720D01*
Y18340D02*
Y37580D01*
Y-100480D02*
Y-80530D01*
Y-220420D02*
Y-199910D01*
X76878Y-43192D02*
X76890Y-43180D01*
X76866Y-52038D02*
X76878Y-52025D01*
X158750Y-18560D02*
X158850Y-18460D01*
X167540D01*
X167640Y-18360D01*
X82270Y-135508D02*
X82374D01*
X73660Y-126898D02*
Y-109220D01*
Y-126898D02*
X82270Y-135508D01*
X73660Y-109220D02*
Y-105684D01*
X57979Y-90003D02*
X73660Y-105684D01*
X208130Y-239320D02*
X208205Y-239395D01*
X214630Y-220420D02*
X244990D01*
X245700Y-219710D01*
X-13970Y-117696D02*
X-13344Y-117070D01*
X-13970Y-125730D02*
Y-117696D01*
X208130Y-560D02*
X208205Y-635D01*
X208130Y-119380D02*
X208205Y-119455D01*
X208130Y118820D02*
X208205Y118745D01*
X214630Y18340D02*
X244990D01*
X245700Y19050D01*
X214630Y-100480D02*
X245550D01*
X245700Y-100330D01*
X214630Y137720D02*
X244990D01*
X245700Y138430D01*
X195580Y-23700D02*
X195730Y-23550D01*
X194100Y-22220D02*
X195580Y-23700D01*
X178060Y-22220D02*
Y-17520D01*
X181382Y-14198D01*
X176580Y-23700D02*
X178060Y-22220D01*
X181382Y-14198D02*
X190728D01*
X194100Y-17570D01*
Y-22220D02*
Y-17570D01*
X170180Y-137400D02*
Y-129540D01*
X158750Y-27160D02*
X167640D01*
X175100D02*
X176580Y-25680D01*
Y-23700D01*
X167640Y-27160D02*
X175100D01*
X167640Y-34290D02*
Y-27160D01*
X117552Y-30392D02*
X119250Y-32090D01*
X117552Y-30392D02*
Y-24508D01*
X114300Y-21256D02*
X117552Y-24508D01*
X114300Y-21256D02*
Y-20320D01*
X71250Y-32090D02*
X72948Y-30392D01*
Y-24508D01*
X76200Y-21256D01*
Y-20320D01*
X185538Y970D02*
X186017Y1450D01*
X176530Y10160D02*
X176555Y10135D01*
Y25D02*
X176580Y0D01*
X166370Y490D02*
X166850Y970D01*
X139700Y-137280D02*
Y-129540D01*
X43899Y-90170D02*
X50804Y-97074D01*
X50908D01*
X170870Y-153090D02*
X180340D01*
X170180Y-152400D02*
X170870Y-153090D01*
X140510D02*
X149860D01*
X139700Y-152280D02*
X140510Y-153090D01*
X112570D02*
X121920D01*
X111760Y-152280D02*
X112570Y-153090D01*
X50172Y-89164D02*
Y-84462D01*
Y-89164D02*
X54443Y-93435D01*
X50031Y-84321D02*
X50172Y-84462D01*
X54443Y-93539D02*
Y-93435D01*
X1656Y-94570D02*
X1778Y-94448D01*
X85756Y-72822D02*
X87636D01*
X82834Y-75745D02*
X85756Y-72822D01*
X78839Y-79397D02*
X82491Y-75745D01*
X87710Y-72749D02*
Y-69266D01*
X82491Y-75745D02*
X82834D01*
X78735Y-79397D02*
X78839D01*
X87636Y-72822D02*
X87710Y-72749D01*
X92636Y-69339D02*
X92710Y-69266D01*
X92636Y-75032D02*
Y-69339D01*
X90274Y-77394D02*
X92636Y-75032D01*
X87650Y-77394D02*
X90274D01*
X86162Y-78882D02*
X87650Y-77394D01*
X86162Y-78936D02*
Y-78882D01*
X82270Y-82828D02*
X86162Y-78936D01*
X82270Y-82932D02*
Y-82828D01*
X108424Y-51961D02*
X108477Y-51908D01*
Y-43233D02*
X108530Y-43180D01*
X107948Y-42598D02*
X108530Y-43180D01*
X107750Y-32090D02*
X107948Y-32288D01*
X76890Y-43180D02*
X77552Y-42518D01*
Y-32288D02*
X77750Y-32090D01*
X87750D02*
X87948Y-31892D01*
Y-24972D01*
X89882Y-23038D01*
X95618D01*
X97552Y-24972D01*
Y-31892D02*
Y-24972D01*
Y-31892D02*
X97750Y-32090D01*
X87730Y-32110D02*
X87750Y-32090D01*
X87730Y-55174D02*
Y-32110D01*
X87710Y-55194D02*
X87730Y-55174D01*
X102552Y-32288D02*
X102750Y-32090D01*
X102552Y-39208D02*
Y-32288D01*
X98118Y-43642D02*
X102552Y-39208D01*
X92730Y-43642D02*
X98118D01*
X92730D02*
Y-32110D01*
X92750Y-32090D01*
X92730Y-55174D02*
Y-43642D01*
X92710Y-55194D02*
X92730Y-55174D01*
D17*
X313100Y87630D02*
D03*
Y-219710D02*
D03*
Y138430D02*
D03*
Y19050D02*
D03*
Y-151130D02*
D03*
Y-100330D02*
D03*
Y-270510D02*
D03*
Y-31750D02*
D03*
X245700Y-219710D02*
D03*
Y-57150D02*
D03*
Y19050D02*
D03*
Y-295910D02*
D03*
Y62230D02*
D03*
Y138430D02*
D03*
Y-176530D02*
D03*
Y-100330D02*
D03*
D18*
X214630Y99580D02*
D03*
Y75680D02*
D03*
Y38850D02*
D03*
Y62750D02*
D03*
Y-80530D02*
D03*
Y-56630D02*
D03*
Y-199910D02*
D03*
Y-176010D02*
D03*
D19*
Y-220420D02*
D03*
X221130Y-239320D02*
D03*
X208130D02*
D03*
X221130Y118820D02*
D03*
Y-119380D02*
D03*
Y-560D02*
D03*
X214630Y137720D02*
D03*
X208130Y118820D02*
D03*
X214630Y18340D02*
D03*
X208130Y-560D02*
D03*
X214630Y-100480D02*
D03*
X208130Y-119380D02*
D03*
D20*
X-13344Y-102070D02*
D03*
X139700Y-152280D02*
D03*
Y-137280D02*
D03*
X170180Y-152400D02*
D03*
Y-137400D02*
D03*
X111760Y-152280D02*
D03*
Y-137280D02*
D03*
X-13344Y-117070D02*
D03*
X1656Y-94570D02*
D03*
Y-109570D02*
D03*
Y-124570D02*
D03*
D21*
X57979Y-90003D02*
D03*
X82270Y-135508D02*
D03*
X78735Y-139044D02*
D03*
X85806Y-131972D02*
D03*
X89341Y-128437D02*
D03*
X92877Y-124901D02*
D03*
X96412Y-121366D02*
D03*
X99948Y-117830D02*
D03*
X103483Y-114295D02*
D03*
X68585Y-79397D02*
D03*
X65050Y-82932D02*
D03*
X61514Y-86468D02*
D03*
X54443Y-93539D02*
D03*
X50908Y-97074D02*
D03*
X47372Y-100610D02*
D03*
X43836Y-104145D02*
D03*
D22*
X-19558Y-38862D02*
D03*
Y-80518D02*
D03*
X1778D02*
D03*
Y-38862D02*
D03*
D23*
X186080Y-23700D02*
D03*
X176580Y0D02*
D03*
X195580D02*
D03*
Y-23700D02*
D03*
X176580D02*
D03*
D24*
X117530Y-43180D02*
D03*
X67890D02*
D03*
X76890D02*
D03*
X108530D02*
D03*
D25*
X186017Y10050D02*
D03*
X158750Y-18560D02*
D03*
X166370Y-8110D02*
D03*
Y490D02*
D03*
X158750Y-27160D02*
D03*
X186017Y1450D02*
D03*
D26*
X66366Y-52038D02*
D03*
X118924Y-51961D02*
D03*
X108424D02*
D03*
X76866Y-52038D02*
D03*
D27*
X43949Y-78239D02*
D03*
X50031Y-84321D02*
D03*
D28*
X71889Y-154171D02*
D03*
X78239Y-160521D02*
D03*
X84321Y-154439D02*
D03*
X77971Y-148089D02*
D03*
D29*
X149860Y-144090D02*
D03*
X180340D02*
D03*
X121920D02*
D03*
Y-153090D02*
D03*
X180340D02*
D03*
X149860D02*
D03*
D30*
X167640Y-18360D02*
D03*
Y-27360D02*
D03*
D31*
X97710Y-69266D02*
D03*
X87710Y-55194D02*
D03*
X92710D02*
D03*
X97710D02*
D03*
X92710Y-69266D02*
D03*
D32*
X127250Y-32090D02*
D03*
X63250D02*
D03*
X71250D02*
D03*
X119250D02*
D03*
D33*
X103483Y-104145D02*
D03*
X47372Y-117830D02*
D03*
X50908Y-121366D02*
D03*
X54443Y-124901D02*
D03*
X57979Y-128437D02*
D03*
X61514Y-131972D02*
D03*
X65050Y-135508D02*
D03*
X68585Y-139044D02*
D03*
X99948Y-100610D02*
D03*
X96412Y-97074D02*
D03*
X92877Y-93539D02*
D03*
X89341Y-90003D02*
D03*
X85806Y-86468D02*
D03*
X82270Y-82932D02*
D03*
X78735Y-79397D02*
D03*
D34*
X77750Y-32090D02*
D03*
X82750D02*
D03*
X87750D02*
D03*
X92750D02*
D03*
X97750D02*
D03*
X102750D02*
D03*
X107750D02*
D03*
X112750D02*
D03*
D35*
X87710Y-69266D02*
D03*
D36*
X43836Y-114295D02*
D03*
D41*
X73660Y-109220D02*
D03*
D53*
X138450Y15460D02*
D03*
X52050D02*
D03*
D54*
X138450Y-26340D02*
D03*
X52050D02*
D03*
D55*
X66350Y-21340D02*
D03*
X124150D02*
D03*
D57*
X217170Y62230D02*
X228600D01*
X217170Y-57150D02*
X228600D01*
X217170Y-176530D02*
X228600D01*
Y-295910D02*
X245700D01*
X228600Y-176530D02*
X245700D01*
X228600Y-57150D02*
X245700D01*
X228600Y62230D02*
X245700D01*
D58*
X76878Y-52025D02*
Y-43192D01*
X46888Y-64770D02*
X65050Y-82932D01*
X1778Y-64770D02*
Y-38862D01*
Y-80518D02*
Y-64770D01*
X46888D01*
X208205Y-250115D02*
Y-239395D01*
X114565Y-94985D02*
Y-94287D01*
X108721Y-99012D02*
X110538D01*
X114565Y-94985D01*
X103588Y-104145D02*
X108721Y-99012D01*
X105321Y-84826D02*
X105399D01*
X100898Y-89249D02*
X105321Y-84826D01*
X106680Y-93636D02*
Y-92755D01*
X96412Y-96833D02*
X100898Y-92347D01*
Y-89249D01*
X96412Y-96970D02*
Y-96833D01*
X100052Y-100264D02*
X106680Y-93636D01*
X100052Y-100610D02*
Y-100264D01*
X92877Y-93396D02*
X96520Y-89753D01*
Y-82550D01*
X92877Y-93435D02*
Y-93396D01*
X208205Y-11355D02*
Y-635D01*
Y-129465D02*
Y-119455D01*
Y108025D02*
Y118745D01*
X43686Y-97028D02*
X47268Y-100610D01*
X30465Y-97028D02*
X43686D01*
X16510Y-119380D02*
X34290Y-101600D01*
X13193Y-114300D02*
X30465Y-97028D01*
X34290Y-101600D02*
X41291D01*
X43836Y-104145D01*
X6846Y-119380D02*
X16510D01*
X1656Y-124570D02*
X6846Y-119380D01*
X1656Y-109570D02*
X6386Y-114300D01*
X13193D01*
X1778Y-94448D02*
Y-80518D01*
X105255Y-137280D02*
X111760D01*
X92877Y-124901D02*
X105255Y-137280D01*
X108477Y-51908D02*
Y-43233D01*
X107948Y-42598D02*
Y-32288D01*
X77552Y-42518D02*
Y-32288D01*
D59*
X476250Y-342900D02*
D03*
Y203200D02*
D03*
X0Y-162560D02*
D03*
Y0D02*
D03*
D60*
X451000Y133660D02*
D03*
X369000D02*
D03*
X451000Y83660D02*
D03*
X369000D02*
D03*
X451000Y33660D02*
D03*
X369000D02*
D03*
X451000Y-16340D02*
D03*
X369000D02*
D03*
X451000Y-66340D02*
D03*
X369000D02*
D03*
X451000Y-116340D02*
D03*
X369000D02*
D03*
X451000Y-166340D02*
D03*
X369000D02*
D03*
X451000Y-216340D02*
D03*
X369000D02*
D03*
X451000Y-266340D02*
D03*
X369000D02*
D03*
D61*
X476250Y-323850D02*
D03*
X462780Y-329430D02*
D03*
X457200Y-342900D02*
D03*
X462780Y-356370D02*
D03*
X476250Y-361950D02*
D03*
X489720Y-356370D02*
D03*
X495300Y-342900D02*
D03*
X489720Y-329430D02*
D03*
X476250Y222250D02*
D03*
X462780Y216670D02*
D03*
X457200Y203200D02*
D03*
X462780Y189730D02*
D03*
X476250Y184150D02*
D03*
X489720Y189730D02*
D03*
X495300Y203200D02*
D03*
X489720Y216670D02*
D03*
X89356Y-148353D02*
D03*
X13470Y-149090D02*
D03*
X19050Y-162560D02*
D03*
X13470Y-176030D02*
D03*
X0Y-181610D02*
D03*
X-13470Y-176030D02*
D03*
X-19050Y-162560D02*
D03*
X-13470Y-149090D02*
D03*
X0Y-143510D02*
D03*
X13470Y13470D02*
D03*
X19050Y0D02*
D03*
X13470Y-13470D02*
D03*
X0Y-19050D02*
D03*
X-13470Y-13470D02*
D03*
X-19050Y0D02*
D03*
X-13470Y13470D02*
D03*
X0Y19050D02*
D03*
X82550Y-99862D02*
D03*
X63500Y-117642D02*
D03*
X82550D02*
D03*
X66040Y-99862D02*
D03*
X73660Y-108752D02*
D03*
X208205Y-250115D02*
D03*
X114565Y-94287D02*
D03*
X106680Y-92755D02*
D03*
X105399Y-84826D02*
D03*
X96520Y-82550D02*
D03*
X-13970Y-125730D02*
D03*
X208205Y-11355D02*
D03*
Y108025D02*
D03*
X208280Y-129540D02*
D03*
X228600Y-295910D02*
D03*
Y-176530D02*
D03*
Y-57150D02*
D03*
Y62230D02*
D03*
X170180Y-129540D02*
D03*
X167640Y-34290D02*
D03*
X114300Y-20320D02*
D03*
X76200D02*
D03*
X176530Y10160D02*
D03*
X139700Y-129540D02*
D03*
X43899Y-90170D02*
D03*
D62*
X239250Y-38250D02*
D03*
Y-138250D02*
D03*
X214250Y-188250D02*
D03*
X239250Y-238250D02*
D03*
X214250Y-288250D02*
D03*
X164250Y11750D02*
D03*
X189250Y-38250D02*
D03*
Y-138250D02*
D03*
X114250Y11750D02*
D03*
X64250D02*
D03*
X39250Y-38250D02*
D03*
X14250Y-88250D02*
D03*
X39250Y-138250D02*
D03*
M02*
